<?xml version="1.0" encoding="UTF-8"?>
<svg xmlns="http://www.w3.org/2000/svg" xmlns:xlink="http://www.w3.org/1999/xlink" version="1.1" viewBox="0 0 104.4 107.8">
  <defs>
    <style>
      .cls-1 {
        fill: url(#linear-gradient-5);
      }

      .cls-2 {
        fill: url(#linear-gradient-4);
      }

      .cls-3 {
        fill: url(#linear-gradient-3);
      }

      .cls-4 {
        fill: url(#linear-gradient-2);
      }

      .cls-5 {
        fill: url(#linear-gradient);
      }
    </style>
    <linearGradient id="linear-gradient" x1="54.8" y1="990.1" x2="67.9" y2="976.5" gradientTransform="translate(0 -970)" gradientUnits="userSpaceOnUse">
      <stop offset="0" stop-color="#00a8a8" stop-opacity="0"/>
      <stop offset=".7" stop-color="#00a8a8" stop-opacity=".7"/>
      <stop offset="1" stop-color="#00a8a8"/>
    </linearGradient>
    <linearGradient id="linear-gradient-2" x1="72.2" y1="992.4" x2="91.3" y2="996.7" gradientTransform="translate(0 -970)" gradientUnits="userSpaceOnUse">
      <stop offset="0" stop-color="#00a8a8" stop-opacity="0"/>
      <stop offset=".7" stop-color="#00a8a8" stop-opacity=".7"/>
      <stop offset="1" stop-color="#00a8a8"/>
    </linearGradient>
    <linearGradient id="linear-gradient-3" x1="112.7" y1="970.2" x2="92.2" y2="989.8" gradientTransform="translate(0 -970)" gradientUnits="userSpaceOnUse">
      <stop offset="0" stop-color="#00a8a8" stop-opacity="0"/>
      <stop offset="1" stop-color="#00a8a8"/>
    </linearGradient>
    <linearGradient id="linear-gradient-4" x1="54.3" y1="976.8" x2="53.8" y2="1013.6" gradientTransform="translate(0 -970)" gradientUnits="userSpaceOnUse">
      <stop offset="0" stop-color="#00a8a8" stop-opacity="0"/>
      <stop offset="1" stop-color="#00a8a8"/>
    </linearGradient>
    <linearGradient id="linear-gradient-5" x1="7.1" y1="117.1" x2="27.8" y2="95.1" gradientUnits="userSpaceOnUse">
      <stop offset="0" stop-color="#00a8a8" stop-opacity="0"/>
      <stop offset="1" stop-color="#00a8a8"/>
    </linearGradient>
  </defs>
  <!-- Generator: Adobe Illustrator 28.6.0, SVG Export Plug-In . SVG Version: 1.2.0 Build 709)  -->
  <g>
    <g id="Layer_1">
      <g id="Layer_1-2" data-name="Layer_1">
        <g>
          <g id="Page-1">
            <g id="logo-main-5">
              <g id="logo-main-copy-15">
                <path id="Path_3" class="cls-5" d="M50.3,8.6c2.8-.6,5.7-.8,8.6-.7,8.1,0,13.4,2.9,15.5,8.1h0c-2.4-.7-4.9-1.1-7.4-1-2.9-.1-5.8.1-8.6.7,0,0-8.1-7.1-8.1-7.1Z"/>
              </g>
            </g>
          </g>
          <g>
            <g id="Page-1-2">
              <g id="logo-main-5-2">
                <g id="logo-main-copy-15-2">
                  <path id="Path_3-2" class="cls-4" d="M104,32.7l-20.7-5.6-8.1-7.1,20.7,5.6s8.1,7.1,8.1,7.1Z"/>
                </g>
              </g>
            </g>
            <g id="Page-1-3">
              <g id="logo-main-5-3">
                <g id="logo-main-copy-15-3">
                  <path id="Path_3-3" class="cls-3" d="M95.9,25.6c.2-1.5.3-3.1.4-4.7C96.3,12.2,93.1,4.8,87.7,0l8.1,7.1c5.4,4.8,8.8,12.2,8.6,20.9,0,1.6-.2,3.2-.4,4.7l-8.1-7.1Z"/>
                </g>
              </g>
            </g>
          </g>
          <g>
            <g id="Page-1-4">
              <g id="logo-main-5-4">
                <g id="logo-main-copy-15-4">
                  <path id="Path_3-4" class="cls-2" d="M49.3,64.6l1-56,8.1,7.1-1,56s-8.1-7.1-8.1-7.1Z"/>
                </g>
              </g>
            </g>
            <g id="Page-1-5">
              <g id="logo-main-5-5">
                <g id="logo-main-copy-15-5">
                  <path class="cls-1" d="M57.4,71.7c-.5,26.7-13.4,36.1-33.8,36.1s-9,0-11-.2c-.8-.5-1.5-1-1.7-1.1,0,0,0,0,0,0L0,98.5c5,1.5,10.3,2.2,15.5,2.2,20.4,0,33.4-9.3,33.8-36.1l8.1,7.1Z"/>
                </g>
              </g>
            </g>
          </g>
        </g>
      </g>
    </g>
  </g>
</svg>