<?xml version="1.0" encoding="UTF-8"?>
<svg id="Layer_1" data-name="Layer 1" xmlns="http://www.w3.org/2000/svg" xmlns:xlink="http://www.w3.org/1999/xlink" viewBox="0 0 100 100">
  <defs>
    <style>
      .cls-1 {
        fill: url(#linear-gradient-5);
      }

      .cls-2 {
        fill: url(#linear-gradient-4);
      }

      .cls-3 {
        fill: url(#linear-gradient-3);
      }

      .cls-4 {
        fill: url(#linear-gradient-2);
      }

      .cls-5 {
        fill: url(#linear-gradient);
      }
    </style>
    <linearGradient id="linear-gradient" x1="51.42" y1="60.54" x2="51.42" y2="6.05" gradientUnits="userSpaceOnUse">
      <stop offset="0" stop-color="#00a8a8"/>
      <stop offset=".4" stop-color="#00a8a8" stop-opacity=".49"/>
      <stop offset="1" stop-color="#00a8a8" stop-opacity="0"/>
    </linearGradient>
    <linearGradient id="linear-gradient-2" x1="85.1" y1="28.99" x2="94.74" y2=".54" gradientUnits="userSpaceOnUse">
      <stop offset="0" stop-color="#00a8a8"/>
      <stop offset="1" stop-color="#00a8a8" stop-opacity="0"/>
    </linearGradient>
    <linearGradient id="linear-gradient-3" x1="78.51" y1="34.11" x2="85.11" y2="26.68" gradientUnits="userSpaceOnUse">
      <stop offset="0" stop-color="#00a8a8" stop-opacity="0"/>
      <stop offset=".7" stop-color="#00a8a8" stop-opacity=".7"/>
      <stop offset="1" stop-color="#00a8a8"/>
    </linearGradient>
    <linearGradient id="linear-gradient-4" x1="15.46" y1="107.2" x2="35.28" y2="79.12" gradientUnits="userSpaceOnUse">
      <stop offset="0" stop-color="#00a8a8" stop-opacity="0"/>
      <stop offset=".47" stop-color="#00a8a8" stop-opacity=".48"/>
      <stop offset="1" stop-color="#00a8a8"/>
    </linearGradient>
    <linearGradient id="linear-gradient-5" x1="52.48" y1="22.93" x2="71.65" y2="6.59" xlink:href="#linear-gradient-3"/>
  </defs>
  <polygon class="cls-5" points="48.34 14.33 55.32 20.49 54.5 68.83 47.52 62.67 48.34 14.33"/>
  <path class="cls-4" d="M95.13,31.2c0-.46,0-.92-.01-1.38,0-.15-.02-.31-.03-.46-.01-.29-.03-.58-.05-.86,0,0,0-.02,0-.02-.05-.62-.13-1.22-.22-1.82-.02-.14-.04-.28-.07-.42-.1-.59-.22-1.18-.36-1.75,0-.04-.02-.08-.03-.11-.14-.54-.29-1.07-.46-1.59-.04-.13-.08-.25-.12-.38-.19-.54-.39-1.07-.61-1.59-.03-.08-.07-.15-.1-.23-.2-.46-.42-.91-.65-1.35-.06-.11-.11-.21-.17-.32-.26-.48-.54-.95-.83-1.41-.06-.09-.12-.18-.18-.27-.27-.4-.54-.79-.83-1.17-.06-.08-.12-.16-.18-.24-.33-.42-.68-.83-1.04-1.22-.03-.03-.06-.07-.09-.11-.05-.05-.1-.09-.14-.14-.41-.43-.82-.84-1.26-1.23,0,0,0,0,0,0l-6.98-6.16c.44.39.86.8,1.26,1.23.08.08.16.16.23.24.36.39.71.8,1.04,1.22.06.08.12.16.18.24.29.38.57.77.84,1.17.06.09.12.17.18.26.29.46.57.93.83,1.41.06.1.11.21.17.32.23.44.45.89.65,1.35.03.08.07.15.1.23.22.52.42,1.05.61,1.59.04.13.08.25.12.38.17.52.33,1.05.46,1.59,0,.04.02.08.03.12.14.57.26,1.16.36,1.75.02.14.05.28.07.42.09.6.17,1.2.22,1.82.02.29.04.59.05.88,0,.15.02.3.03.46.01.45.02.91.01,1.38-.01.82-.07,1.63-.13,2.43-.05.54-.09,1.07-.16,1.59l6.98,6.16c.06-.44.11-.89.15-1.34,0-.08,0-.17.01-.25.07-.8.12-1.61.13-2.43Z"/>
  <polygon class="cls-3" points="87.85 29.07 94.83 35.22 76.95 30.39 69.97 24.24 87.85 29.07"/>
  <path class="cls-2" d="M53.85,76.84c.02-.12.03-.25.05-.37.07-.46.13-.92.19-1.4.03-.22.05-.44.07-.66.03-.3.07-.6.1-.9,0-.08.01-.16.02-.24.04-.48.07-.97.1-1.46.01-.24.03-.47.05-.71.04-.74.06-1.49.08-2.27l-6.98-6.16c-.01.77-.04,1.53-.08,2.27-.01.24-.03.47-.05.71-.03.49-.06.98-.1,1.46-.03.39-.07.77-.11,1.15-.02.22-.04.44-.07.65-.06.48-.12.94-.19,1.4-.02.12-.03.25-.05.37-.09.58-.19,1.14-.3,1.69-.03.15-.06.3-.1.45-.08.38-.16.76-.25,1.13-.16.67-.33,1.32-.52,1.95-.04.15-.09.28-.14.43-.15.49-.31.97-.48,1.44-.07.19-.14.39-.22.58-.13.34-.27.67-.41.99-.08.19-.16.38-.24.56-.16.35-.33.69-.5,1.03-.07.14-.14.28-.21.42-.24.46-.5.91-.76,1.34-.02.04-.05.08-.08.11-.24.39-.49.77-.76,1.14-.08.11-.16.22-.24.32-.24.33-.49.65-.74.95-.11.13-.22.27-.34.4-.25.29-.5.56-.76.83-.11.12-.22.23-.34.35-.16.16-.33.31-.5.47-.16.15-.31.29-.48.43-.17.15-.35.29-.53.44-.16.13-.33.27-.5.4-.18.14-.37.27-.56.4-.17.12-.34.25-.52.36-.19.13-.39.25-.58.37-.18.11-.36.23-.54.33-.2.12-.41.23-.61.34-.19.1-.37.21-.56.3-.21.11-.42.2-.64.31-.19.09-.38.18-.58.27-.22.1-.44.18-.67.27-.2.08-.4.16-.6.24-.23.09-.46.16-.69.24-.21.07-.41.15-.62.21-.24.08-.48.14-.72.21-.21.06-.42.13-.64.18-.25.07-.5.12-.76.19-.21.05-.43.11-.64.15-.26.06-.53.11-.79.16-.22.04-.43.09-.66.13-.27.05-.54.09-.82.13-.22.03-.44.07-.67.1-.29.04-.58.07-.88.1-.22.02-.43.05-.65.07-.32.03-.65.05-.97.08-.2.01-.39.03-.6.05-.37.02-.75.04-1.13.05-.16,0-.32.02-.48.02-.54.02-1.09.02-1.65.02-1.62,0-3.41-.1-5.2-.29-1.19-.13-2.39-.29-3.54-.49-.57-.1-1.14-.21-1.68-.33-1.09-.24-2.1-.51-3-.81h0,0l6.98,6.16c3.58,1.2,9.1,1.92,13.42,1.92.56,0,1.11,0,1.65-.02.16,0,.32-.02.48-.02.38-.01.76-.03,1.13-.05.2-.01.4-.03.6-.05.33-.02.65-.05.97-.08.22-.02.43-.05.65-.07.29-.03.59-.06.88-.1.23-.03.45-.07.67-.1.27-.04.55-.08.82-.13.22-.04.44-.09.66-.13.26-.05.53-.1.79-.16.22-.05.42-.1.64-.15.26-.06.51-.12.76-.19.21-.06.42-.12.63-.18.24-.07.49-.14.73-.21.21-.07.41-.14.61-.21.23-.08.47-.16.7-.25.2-.08.4-.16.59-.24.22-.09.45-.18.67-.28.2-.09.39-.18.58-.27.22-.1.43-.2.64-.31.19-.1.37-.2.56-.3.2-.11.41-.22.61-.34.18-.11.36-.22.54-.33.2-.12.39-.24.58-.37.17-.12.34-.24.52-.36.19-.13.38-.26.56-.4.17-.13.33-.26.49-.4.18-.14.36-.29.53-.44.16-.14.31-.29.47-.43.17-.16.34-.31.5-.47.04-.04.08-.07.12-.11.07-.07.14-.16.21-.23.26-.27.52-.55.77-.83.11-.13.22-.26.33-.39.26-.31.5-.63.75-.96.06-.08.13-.15.18-.24.02-.03.04-.06.06-.09.26-.37.51-.75.76-1.14.02-.04.05-.07.07-.11.27-.43.52-.88.76-1.34.01-.03.03-.05.04-.08.06-.11.11-.23.17-.34.17-.34.34-.68.5-1.03.08-.18.16-.37.24-.56.14-.32.28-.65.41-.99.04-.1.08-.19.12-.29.03-.09.06-.19.1-.29.17-.47.33-.95.49-1.45.04-.14.09-.28.13-.42.19-.63.36-1.28.52-1.96,0-.04.02-.08.03-.12.08-.33.15-.67.22-1.01.03-.15.07-.3.1-.45.11-.55.21-1.11.3-1.69Z"/>
  <path class="cls-1" d="M55.81,13.73c7.01,0,11.63,2.56,13.4,7.06h-.02c-1.83-.59-3.97-.9-6.4-.9-3.6,0-6.13.24-7.46.6l-6.98-6.16c1.33-.36,3.86-.6,7.46-.6"/>
</svg>