<svg width="54" height="54" viewBox="0 0 54 54" fill="none" xmlns="http://www.w3.org/2000/svg">
<path d="M21.797 47.3255C20.997 45.7255 20.4637 34.9922 20.797 29.8255C20.955 27.0255 11.2968 22.8255 8.29681 18.8255C5.79681 16.3255 19.7971 22.3255 23.7971 20.3255C27.797 18.3255 33.1099 11.6844 35.7969 8.32568L35.797 8.32551C37.797 5.82551 31.297 18.3255 34.297 25.3255C37.297 32.3255 51.2971 33.8255 47.7971 34.3255C44.9971 34.7255 35.5 35.5 30.5 35C24.5 36.5 22.797 49.3255 21.797 47.3255Z" fill="#F5F5DC"/>
<g filter="url(#filter0_f_140_228)">
<circle cx="27" cy="27" r="15" fill="#FFEEB2" fill-opacity="0.6"/>
</g>
<defs>
<filter id="filter0_f_140_228" x="0" y="0" width="54" height="54" filterUnits="userSpaceOnUse" color-interpolation-filters="sRGB">
<feFlood flood-opacity="0" result="BackgroundImageFix"/>
<feBlend mode="normal" in="SourceGraphic" in2="BackgroundImageFix" result="shape"/>
<feGaussianBlur stdDeviation="6" result="effect1_foregroundBlur_140_228"/>
</filter>
</defs>
</svg>
