<?xml version="1.0" encoding="UTF-8"?>
<svg id="Layer_1" data-name="Layer 1" xmlns="http://www.w3.org/2000/svg" viewBox="0 0 24 24">
  <defs>
    <style>
      .cls-1, .cls-2 {
        stroke-width: 0px;
      }

      .cls-2 {
        fill: #bcbcbc;
      }
    </style>
  </defs>
  <g>
    <g>
      <rect class="cls-2" x="23" y="21.09" width="1" height=".91"/>
      <rect class="cls-2" x="22" y="21.09" width="1" height=".91"/>
      <rect class="cls-2" x="21" y="21.09" width="1" height=".91"/>
      <rect class="cls-2" x="20" y="21.09" width="1" height=".91"/>
      <rect class="cls-2" x="19" y="21.09" width="1" height=".91"/>
      <rect class="cls-2" x="18" y="21.09" width="1" height=".91"/>
      <rect class="cls-2" x="17" y="21.09" width="1" height=".91"/>
      <rect class="cls-2" x="16" y="21.09" width="1" height=".91"/>
      <rect class="cls-2" x="15" y="21.09" width="1" height=".91"/>
      <rect class="cls-2" x="14" y="21.09" width="1" height=".91"/>
      <rect class="cls-2" x="13" y="21.09" width="1" height=".91"/>
      <rect class="cls-2" x="12" y="21.09" width="1" height=".91"/>
      <rect class="cls-2" x="11" y="21.09" width="1" height=".91"/>
      <rect class="cls-2" x="10" y="21.09" width="1" height=".91"/>
      <rect class="cls-2" x="9" y="21.09" width="1" height=".91"/>
      <rect class="cls-2" x="8" y="21.09" width="1" height=".91"/>
      <rect class="cls-2" x="7" y="21.09" width="1" height=".91"/>
      <rect class="cls-2" x="6" y="21.09" width="1" height=".91"/>
      <rect class="cls-2" x="5" y="21.09" width="1" height=".91"/>
      <rect class="cls-2" x="4" y="21.09" width="1" height=".91"/>
      <rect class="cls-2" x="3" y="21.09" width="1" height=".91"/>
      <rect class="cls-2" x="2" y="21.09" width="1" height=".91"/>
      <rect class="cls-2" x="1" y="21.09" width="1" height=".91"/>
      <rect class="cls-2" y="21.09" width="1" height=".91"/>
      <rect class="cls-2" x="23" y="20.18" width="1" height=".91"/>
      <rect class="cls-2" y="20.18" width="1" height=".91"/>
      <rect class="cls-2" x="23" y="19.27" width="1" height=".91"/>
      <rect class="cls-2" y="19.27" width="1" height=".91"/>
      <rect class="cls-2" x="22" y="18.36" width="1" height=".91"/>
      <rect class="cls-2" x="21" y="18.36" width="1" height=".91"/>
      <rect class="cls-2" x="20" y="18.36" width="1" height=".91"/>
      <rect class="cls-2" x="19" y="18.36" width="1" height=".91"/>
      <rect class="cls-2" x="18" y="18.36" width="1" height=".91"/>
      <rect class="cls-2" x="17" y="18.36" width="1" height=".91"/>
      <rect class="cls-2" x="16" y="18.36" width="1" height=".91"/>
      <rect class="cls-2" x="15" y="18.36" width="1" height=".91"/>
      <rect class="cls-2" x="14" y="18.36" width="1" height=".91"/>
      <rect class="cls-2" x="13" y="18.36" width="1" height=".91"/>
      <rect class="cls-2" x="12" y="18.36" width="1" height=".91"/>
      <rect class="cls-2" x="11" y="18.36" width="1" height=".91"/>
      <rect class="cls-2" x="10" y="18.36" width="1" height=".91"/>
      <rect class="cls-2" x="9" y="18.36" width="1" height=".91"/>
      <rect class="cls-2" x="8" y="18.36" width="1" height=".91"/>
      <rect class="cls-2" x="7" y="18.36" width="1" height=".91"/>
      <rect class="cls-2" x="6" y="18.36" width="1" height=".91"/>
      <rect class="cls-2" x="5" y="18.36" width="1" height=".91"/>
      <rect class="cls-2" x="4" y="18.36" width="1" height=".91"/>
      <rect class="cls-2" x="3" y="18.36" width="1" height=".91"/>
      <rect class="cls-2" x="2" y="18.36" width="1" height=".91"/>
      <rect class="cls-2" x="1" y="18.36" width="1" height=".91"/>
      <rect class="cls-2" x="22" y="17.45" width="1" height=".91"/>
      <rect class="cls-2" x="1" y="17.45" width="1" height=".91"/>
      <rect class="cls-2" x="22" y="16.55" width="1" height=".91"/>
      <rect class="cls-2" x="1" y="16.55" width="1" height=".91"/>
      <rect class="cls-2" x="22" y="15.64" width="1" height=".91"/>
      <rect class="cls-2" x="1" y="15.64" width="1" height=".91"/>
      <rect class="cls-2" x="22" y="14.73" width="1" height=".91"/>
      <rect class="cls-2" x="1" y="14.73" width="1" height=".91"/>
      <rect class="cls-2" x="22" y="13.82" width="1" height=".91"/>
      <rect class="cls-2" x="1" y="13.82" width="1" height=".91"/>
      <rect class="cls-2" x="22" y="12.91" width="1" height=".91"/>
      <rect class="cls-2" x="1" y="12.91" width="1" height=".91"/>
      <rect class="cls-2" x="22" y="12" width="1" height=".91"/>
      <rect class="cls-2" x="1" y="12" width="1" height=".91"/>
      <rect class="cls-2" x="22" y="11.09" width="1" height=".91"/>
      <rect class="cls-2" x="1" y="11.09" width="1" height=".91"/>
      <rect class="cls-2" x="22" y="10.18" width="1" height=".91"/>
      <rect class="cls-2" x="1" y="10.18" width="1" height=".91"/>
      <rect class="cls-2" x="22" y="9.27" width="1" height=".91"/>
      <rect class="cls-2" x="1" y="9.27" width="1" height=".91"/>
      <rect class="cls-2" x="22" y="8.36" width="1" height=".91"/>
      <rect class="cls-2" x="1" y="8.36" width="1" height=".91"/>
      <rect class="cls-2" x="22" y="7.45" width="1" height=".91"/>
      <rect class="cls-2" x="1" y="7.45" width="1" height=".91"/>
      <rect class="cls-2" x="22" y="6.55" width="1" height=".91"/>
      <rect class="cls-2" x="1" y="6.55" width="1" height=".91"/>
      <rect class="cls-2" x="22" y="5.64" width="1" height=".91"/>
      <rect class="cls-2" x="1" y="5.64" width="1" height=".91"/>
      <rect class="cls-2" x="22" y="4.73" width="1" height=".91"/>
      <rect class="cls-2" x="1" y="4.73" width="1" height=".91"/>
      <rect class="cls-2" x="22" y="3.82" width="1" height=".91"/>
      <rect class="cls-2" x="1" y="3.82" width="1" height=".91"/>
      <rect class="cls-2" x="22" y="2.91" width="1" height=".91"/>
      <rect class="cls-2" x="21" y="2.91" width="1" height=".91"/>
      <rect class="cls-2" x="2" y="2.91" width="1" height=".91"/>
      <rect class="cls-2" x="1" y="2.91" width="1" height=".91"/>
      <rect class="cls-2" x="21" y="2" width="1" height=".91"/>
      <rect class="cls-2" x="20" y="2" width="1" height=".91"/>
      <rect class="cls-2" x="19" y="2" width="1" height=".91"/>
      <rect class="cls-2" x="18" y="2" width="1" height=".91"/>
      <rect class="cls-2" x="17" y="2" width="1" height=".91"/>
      <rect class="cls-2" x="16" y="2" width="1" height=".91"/>
      <rect class="cls-2" x="15" y="2" width="1" height=".91"/>
      <rect class="cls-2" x="14" y="2" width="1" height=".91"/>
      <rect class="cls-2" x="13" y="2" width="1" height=".91"/>
      <rect class="cls-2" x="12" y="2" width="1" height=".91"/>
      <rect class="cls-2" x="11" y="2" width="1" height=".91"/>
      <rect class="cls-2" x="10" y="2" width="1" height=".91"/>
      <rect class="cls-2" x="9" y="2" width="1" height=".91"/>
      <rect class="cls-2" x="8" y="2" width="1" height=".91"/>
      <rect class="cls-2" x="7" y="2" width="1" height=".91"/>
      <rect class="cls-2" x="6" y="2" width="1" height=".91"/>
      <rect class="cls-2" x="5" y="2" width="1" height=".91"/>
      <rect class="cls-2" x="4" y="2" width="1" height=".91"/>
      <rect class="cls-2" x="3" y="2" width="1" height=".91"/>
      <rect class="cls-2" x="2" y="2" width="1" height=".91"/>
    </g>
    <g>
      <rect class="cls-1" x="8.5" y="16.74" width="1" height=".64"/>
      <rect class="cls-1" x="7.5" y="16.74" width="1" height=".64"/>
      <rect class="cls-1" x="6.5" y="16.74" width="1" height=".64"/>
      <rect class="cls-1" x="5.5" y="16.74" width="1" height=".64"/>
      <rect class="cls-1" x="8.5" y="16.11" width="1" height=".64"/>
      <rect class="cls-1" x="5.5" y="16.11" width="1" height=".64"/>
      <rect class="cls-1" x="7.5" y="15.47" width="1" height=".64"/>
      <rect class="cls-1" x="5.5" y="15.47" width="1" height=".64"/>
      <rect class="cls-1" x="18.5" y="14.83" width="1" height=".64"/>
      <rect class="cls-1" x="17.5" y="14.83" width="1" height=".64"/>
      <rect class="cls-1" x="7.5" y="14.83" width="1" height=".64"/>
      <rect class="cls-1" x="5.5" y="14.83" width="1" height=".64"/>
      <rect class="cls-1" x="18.5" y="14.2" width="1" height=".64"/>
      <rect class="cls-1" x="16.5" y="14.2" width="1" height=".64"/>
      <rect class="cls-1" x="7.5" y="14.2" width="1" height=".64"/>
      <rect class="cls-1" x="5.5" y="14.2" width="1" height=".64"/>
      <rect class="cls-1" x="18.5" y="13.56" width="1" height=".64"/>
      <rect class="cls-1" x="15.5" y="13.56" width="1" height=".64"/>
      <rect class="cls-1" x="7.5" y="13.56" width="1" height=".64"/>
      <rect class="cls-1" x="5.5" y="13.56" width="1" height=".64"/>
      <rect class="cls-1" x="18.5" y="12.92" width="1" height=".64"/>
      <rect class="cls-1" x="17.5" y="12.92" width="1" height=".64"/>
      <rect class="cls-1" x="14.5" y="12.92" width="1" height=".64"/>
      <rect class="cls-1" x="13.5" y="12.92" width="1" height=".64"/>
      <rect class="cls-1" x="7.5" y="12.92" width="1" height=".64"/>
      <rect class="cls-1" x="5.5" y="12.92" width="1" height=".64"/>
      <rect class="cls-1" x="18.5" y="12.29" width="1" height=".64"/>
      <rect class="cls-1" x="16.5" y="12.29" width="1" height=".64"/>
      <rect class="cls-1" x="12.5" y="12.29" width="1" height=".64"/>
      <rect class="cls-1" x="11.5" y="12.29" width="1" height=".64"/>
      <rect class="cls-1" x="9.5" y="12.29" width="1" height=".64"/>
      <rect class="cls-1" x="7.5" y="12.29" width="1" height=".64"/>
      <rect class="cls-1" x="5.5" y="12.29" width="1" height=".64"/>
      <rect class="cls-1" x="18.5" y="11.65" width="1" height=".64"/>
      <rect class="cls-1" x="15.5" y="11.65" width="1" height=".64"/>
      <rect class="cls-1" x="10.5" y="11.65" width="1" height=".64"/>
      <rect class="cls-1" x="8.5" y="11.65" width="1" height=".64"/>
      <rect class="cls-1" x="7.5" y="11.65" width="1" height=".64"/>
      <rect class="cls-1" x="6.5" y="11.65" width="1" height=".64"/>
      <rect class="cls-1" x="5.5" y="11.65" width="1" height=".64"/>
      <rect class="cls-1" x="4.5" y="11.65" width="1" height=".64"/>
      <rect class="cls-1" x="18.5" y="11.01" width="1" height=".64"/>
      <rect class="cls-1" x="14.5" y="11.01" width="1" height=".64"/>
      <rect class="cls-1" x="13.5" y="11.01" width="1" height=".64"/>
      <rect class="cls-1" x="10.5" y="11.01" width="1" height=".64"/>
      <rect class="cls-1" x="8.5" y="11.01" width="1" height=".64"/>
      <rect class="cls-1" x="3.5" y="11.01" width="1" height=".64"/>
      <rect class="cls-1" x="18.5" y="10.38" width="1" height=".64"/>
      <rect class="cls-1" x="12.5" y="10.38" width="1" height=".64"/>
      <rect class="cls-1" x="11.5" y="10.38" width="1" height=".64"/>
      <rect class="cls-1" x="10.5" y="10.38" width="1" height=".64"/>
      <rect class="cls-1" x="8.5" y="10.38" width="1" height=".64"/>
      <rect class="cls-1" x="6.5" y="10.38" width="1" height=".64"/>
      <rect class="cls-1" x="5.5" y="10.38" width="1" height=".64"/>
      <rect class="cls-1" x="4.5" y="10.38" width="1" height=".64"/>
      <rect class="cls-1" x="2.5" y="10.38" width="1" height=".64"/>
      <rect class="cls-1" x="18.5" y="9.74" width="1" height=".64"/>
      <rect class="cls-1" x="10.5" y="9.74" width="1" height=".64"/>
      <rect class="cls-1" x="8.5" y="9.74" width="1" height=".64"/>
      <rect class="cls-1" x="2.5" y="9.74" width="1" height=".64"/>
      <rect class="cls-1" x="18.5" y="9.11" width="1" height=".64"/>
      <rect class="cls-1" x="10.5" y="9.11" width="1" height=".64"/>
      <rect class="cls-1" x="8.5" y="9.11" width="1" height=".64"/>
      <rect class="cls-1" x="2.5" y="9.11" width="1" height=".64"/>
      <rect class="cls-1" x="18.5" y="8.47" width="1" height=".64"/>
      <rect class="cls-1" x="10.5" y="8.47" width="1" height=".64"/>
      <rect class="cls-1" x="8.5" y="8.47" width="1" height=".64"/>
      <rect class="cls-1" x="2.5" y="8.47" width="1" height=".64"/>
      <rect class="cls-1" x="18.5" y="7.83" width="1" height=".64"/>
      <rect class="cls-1" x="10.5" y="7.83" width="1" height=".64"/>
      <rect class="cls-1" x="8.5" y="7.83" width="1" height=".64"/>
      <rect class="cls-1" x="3.5" y="7.83" width="1" height=".64"/>
      <rect class="cls-1" x="18.5" y="7.2" width="1" height=".64"/>
      <rect class="cls-1" x="10.5" y="7.2" width="1" height=".64"/>
      <rect class="cls-1" x="8.5" y="7.2" width="1" height=".64"/>
      <rect class="cls-1" x="7.5" y="7.2" width="1" height=".64"/>
      <rect class="cls-1" x="6.5" y="7.2" width="1" height=".64"/>
      <rect class="cls-1" x="5.5" y="7.2" width="1" height=".64"/>
      <rect class="cls-1" x="4.5" y="7.2" width="1" height=".64"/>
      <rect class="cls-1" x="18.5" y="6.56" width="1" height=".64"/>
      <rect class="cls-1" x="12.5" y="6.56" width="1" height=".64"/>
      <rect class="cls-1" x="11.5" y="6.56" width="1" height=".64"/>
      <rect class="cls-1" x="9.5" y="6.56" width="1" height=".64"/>
      <rect class="cls-1" x="18.5" y="5.92" width="1" height=".64"/>
      <rect class="cls-1" x="14.5" y="5.92" width="1" height=".64"/>
      <rect class="cls-1" x="13.5" y="5.92" width="1" height=".64"/>
      <rect class="cls-1" x="18.5" y="5.29" width="1" height=".64"/>
      <rect class="cls-1" x="15.5" y="5.29" width="1" height=".64"/>
      <rect class="cls-1" x="18.5" y="4.65" width="1" height=".64"/>
      <rect class="cls-1" x="16.5" y="4.65" width="1" height=".64"/>
      <rect class="cls-1" x="18.5" y="4.01" width="1" height=".64"/>
      <rect class="cls-1" x="17.5" y="4.01" width="1" height=".64"/>
    </g>
  </g>
  <g>
    <rect class="cls-1" x="22" y="14.56" width="1" height=".64"/>
    <rect class="cls-1" x="21" y="13.92" width="1" height=".64"/>
  </g>
  <g>
    <g>
      <rect class="cls-1" x="22" y="9.42" width="1" height=".64"/>
      <g>
        <rect class="cls-1" x="21" y="9.42" width="1" height=".64"/>
        <rect class="cls-1" x="20" y="9.42" width="1" height=".64"/>
      </g>
      <rect class="cls-1" x="23" y="9.42" width="1" height=".64"/>
    </g>
    <g>
      <rect class="cls-1" x="22" y="12.05" width="1" height=".64"/>
      <rect class="cls-1" x="21" y="11.41" width="1" height=".64"/>
      <rect class="cls-1" x="20" y="11.41" width="1" height=".64"/>
      <rect class="cls-1" x="23" y="12.65" width="1" height=".64"/>
    </g>
    <g>
      <g>
        <rect class="cls-1" x="20" y="5.92" width="1" height=".64"/>
        <rect class="cls-1" x="21" y="5.29" width="1" height=".64"/>
        <rect class="cls-1" x="22" y="4.65" width="1" height=".64"/>
        <rect class="cls-1" x="20" y="13.25" width="1" height=".64"/>
      </g>
      <g>
        <rect class="cls-1" x="21" y="7.49" width="1" height=".64"/>
        <rect class="cls-1" x="20" y="7.49" width="1" height=".64"/>
        <rect class="cls-1" x="22" y="6.85" width="1" height=".64"/>
        <rect class="cls-1" x="23" y="6.25" width="1" height=".64"/>
        <rect class="cls-1" x="23" y="4.08" width="1" height=".64"/>
      </g>
    </g>
  </g>
  <rect class="cls-1" x="23" y="15.2" width="1" height=".64"/>
</svg>