<?xml version="1.0" encoding="UTF-8"?>
<svg id="Layer_1" data-name="Layer 1" xmlns="http://www.w3.org/2000/svg" viewBox="0 0 24 24">
  <defs>
    <style>
      .cls-1 {
        stroke-width: 0px;
      }
    </style>
  </defs>
  <g>
    <rect class="cls-1" x="22" y="23" width="1" height="1"/>
    <rect class="cls-1" x="19" y="23" width="1" height="1"/>
    <rect class="cls-1" x="18" y="23" width="1" height="1"/>
    <rect class="cls-1" x="17" y="23" width="1" height="1"/>
    <rect class="cls-1" x="16" y="23" width="1" height="1"/>
    <rect class="cls-1" x="15" y="23" width="1" height="1"/>
    <rect class="cls-1" x="14" y="23" width="1" height="1"/>
    <rect class="cls-1" x="13" y="23" width="1" height="1"/>
    <rect class="cls-1" x="12" y="23" width="1" height="1"/>
    <rect class="cls-1" x="11" y="23" width="1" height="1"/>
    <rect class="cls-1" x="10" y="23" width="1" height="1"/>
    <rect class="cls-1" x="9" y="23" width="1" height="1"/>
    <rect class="cls-1" x="8" y="23" width="1" height="1"/>
    <rect class="cls-1" x="7" y="23" width="1" height="1"/>
    <rect class="cls-1" x="6" y="23" width="1" height="1"/>
    <rect class="cls-1" x="5" y="23" width="1" height="1"/>
    <rect class="cls-1" x="4" y="23" width="1" height="1"/>
    <rect class="cls-1" x="1" y="23" width="1" height="1"/>
    <rect class="cls-1" x="22" y="22" width="1" height="1"/>
    <rect class="cls-1" x="21" y="22" width="1" height="1"/>
    <rect class="cls-1" x="20" y="22" width="1" height="1"/>
    <rect class="cls-1" x="19" y="22" width="1" height="1"/>
    <rect class="cls-1" x="18" y="22" width="1" height="1"/>
    <rect class="cls-1" x="17" y="22" width="1" height="1"/>
    <rect class="cls-1" x="16" y="22" width="1" height="1"/>
    <rect class="cls-1" x="15" y="22" width="1" height="1"/>
    <rect class="cls-1" x="14" y="22" width="1" height="1"/>
    <rect class="cls-1" x="13" y="22" width="1" height="1"/>
    <rect class="cls-1" x="12" y="22" width="1" height="1"/>
    <rect class="cls-1" x="11" y="22" width="1" height="1"/>
    <rect class="cls-1" x="10" y="22" width="1" height="1"/>
    <rect class="cls-1" x="9" y="22" width="1" height="1"/>
    <rect class="cls-1" x="8" y="22" width="1" height="1"/>
    <rect class="cls-1" x="7" y="22" width="1" height="1"/>
    <rect class="cls-1" x="6" y="22" width="1" height="1"/>
    <rect class="cls-1" x="5" y="22" width="1" height="1"/>
    <rect class="cls-1" x="4" y="22" width="1" height="1"/>
    <rect class="cls-1" x="3" y="22" width="1" height="1"/>
    <rect class="cls-1" x="2" y="22" width="1" height="1"/>
    <rect class="cls-1" x="1" y="22" width="1" height="1"/>
    <rect class="cls-1" x="22" y="21" width="1" height="1"/>
    <rect class="cls-1" x="21" y="21" width="1" height="1"/>
    <rect class="cls-1" x="20" y="21" width="1" height="1"/>
    <rect class="cls-1" x="19" y="21" width="1" height="1"/>
    <rect class="cls-1" x="4" y="21" width="1" height="1"/>
    <rect class="cls-1" x="3" y="21" width="1" height="1"/>
    <rect class="cls-1" x="2" y="21" width="1" height="1"/>
    <rect class="cls-1" x="1" y="21" width="1" height="1"/>
    <rect class="cls-1" x="22" y="20" width="1" height="1"/>
    <rect class="cls-1" x="19" y="20" width="1" height="1"/>
    <rect class="cls-1" x="4" y="20" width="1" height="1"/>
    <rect class="cls-1" x="1" y="20" width="1" height="1"/>
    <rect class="cls-1" x="22" y="19" width="1" height="1"/>
    <rect class="cls-1" x="19" y="19" width="1" height="1"/>
    <rect class="cls-1" x="4" y="19" width="1" height="1"/>
    <rect class="cls-1" x="1" y="19" width="1" height="1"/>
    <rect class="cls-1" x="22" y="18" width="1" height="1"/>
    <rect class="cls-1" x="19" y="18" width="1" height="1"/>
    <rect class="cls-1" x="4" y="18" width="1" height="1"/>
    <rect class="cls-1" x="1" y="18" width="1" height="1"/>
    <rect class="cls-1" x="22" y="17" width="1" height="1"/>
    <rect class="cls-1" x="21" y="17" width="1" height="1"/>
    <rect class="cls-1" x="20" y="17" width="1" height="1"/>
    <rect class="cls-1" x="19" y="17" width="1" height="1"/>
    <rect class="cls-1" x="4" y="17" width="1" height="1"/>
    <rect class="cls-1" x="3" y="17" width="1" height="1"/>
    <rect class="cls-1" x="2" y="17" width="1" height="1"/>
    <rect class="cls-1" x="1" y="17" width="1" height="1"/>
    <rect class="cls-1" x="22" y="16" width="1" height="1"/>
    <rect class="cls-1" x="21" y="16" width="1" height="1"/>
    <rect class="cls-1" x="20" y="16" width="1" height="1"/>
    <rect class="cls-1" x="19" y="16" width="1" height="1"/>
    <rect class="cls-1" x="4" y="16" width="1" height="1"/>
    <rect class="cls-1" x="3" y="16" width="1" height="1"/>
    <rect class="cls-1" x="2" y="16" width="1" height="1"/>
    <rect class="cls-1" x="1" y="16" width="1" height="1"/>
    <rect class="cls-1" x="22" y="15" width="1" height="1"/>
    <rect class="cls-1" x="19" y="15" width="1" height="1"/>
    <rect class="cls-1" x="4" y="15" width="1" height="1"/>
    <rect class="cls-1" x="1" y="15" width="1" height="1"/>
    <rect class="cls-1" x="22" y="14" width="1" height="1"/>
    <rect class="cls-1" x="19" y="14" width="1" height="1"/>
    <rect class="cls-1" x="4" y="14" width="1" height="1"/>
    <rect class="cls-1" x="1" y="14" width="1" height="1"/>
    <rect class="cls-1" x="22" y="13" width="1" height="1"/>
    <rect class="cls-1" x="19" y="13" width="1" height="1"/>
    <rect class="cls-1" x="4" y="13" width="1" height="1"/>
    <rect class="cls-1" x="1" y="13" width="1" height="1"/>
    <rect class="cls-1" x="22" y="12" width="1" height="1"/>
    <rect class="cls-1" x="21" y="12" width="1" height="1"/>
    <rect class="cls-1" x="20" y="12" width="1" height="1"/>
    <rect class="cls-1" x="19" y="12" width="1" height="1"/>
    <rect class="cls-1" x="4" y="12" width="1" height="1"/>
    <rect class="cls-1" x="3" y="12" width="1" height="1"/>
    <rect class="cls-1" x="2" y="12" width="1" height="1"/>
    <rect class="cls-1" x="1" y="12" width="1" height="1"/>
    <rect class="cls-1" x="22" y="11" width="1" height="1"/>
    <rect class="cls-1" x="21" y="11" width="1" height="1"/>
    <rect class="cls-1" x="20" y="11" width="1" height="1"/>
    <rect class="cls-1" x="19" y="11" width="1" height="1"/>
    <rect class="cls-1" x="4" y="11" width="1" height="1"/>
    <rect class="cls-1" x="3" y="11" width="1" height="1"/>
    <rect class="cls-1" x="2" y="11" width="1" height="1"/>
    <rect class="cls-1" x="1" y="11" width="1" height="1"/>
    <rect class="cls-1" x="22" y="10" width="1" height="1"/>
    <rect class="cls-1" x="19" y="10" width="1" height="1"/>
    <rect class="cls-1" x="4" y="10" width="1" height="1"/>
    <rect class="cls-1" x="1" y="10" width="1" height="1"/>
    <rect class="cls-1" x="22" y="9" width="1" height="1"/>
    <rect class="cls-1" x="19" y="9" width="1" height="1"/>
    <rect class="cls-1" x="4" y="9" width="1" height="1"/>
    <rect class="cls-1" x="1" y="9" width="1" height="1"/>
    <rect class="cls-1" x="22" y="8" width="1" height="1"/>
    <rect class="cls-1" x="19" y="8" width="1" height="1"/>
    <rect class="cls-1" x="4" y="8" width="1" height="1"/>
    <rect class="cls-1" x="1" y="8" width="1" height="1"/>
    <rect class="cls-1" x="22" y="7" width="1" height="1"/>
    <rect class="cls-1" x="21" y="7" width="1" height="1"/>
    <rect class="cls-1" x="20" y="7" width="1" height="1"/>
    <rect class="cls-1" x="19" y="7" width="1" height="1"/>
    <rect class="cls-1" x="4" y="7" width="1" height="1"/>
    <rect class="cls-1" x="3" y="7" width="1" height="1"/>
    <rect class="cls-1" x="2" y="7" width="1" height="1"/>
    <rect class="cls-1" x="1" y="7" width="1" height="1"/>
    <rect class="cls-1" x="22" y="6" width="1" height="1"/>
    <rect class="cls-1" x="21" y="6" width="1" height="1"/>
    <rect class="cls-1" x="20" y="6" width="1" height="1"/>
    <rect class="cls-1" x="19" y="6" width="1" height="1"/>
    <rect class="cls-1" x="4" y="6" width="1" height="1"/>
    <rect class="cls-1" x="3" y="6" width="1" height="1"/>
    <rect class="cls-1" x="2" y="6" width="1" height="1"/>
    <rect class="cls-1" x="1" y="6" width="1" height="1"/>
    <rect class="cls-1" x="22" y="5" width="1" height="1"/>
    <rect class="cls-1" x="19" y="5" width="1" height="1"/>
    <rect class="cls-1" x="4" y="5" width="1" height="1"/>
    <rect class="cls-1" x="1" y="5" width="1" height="1"/>
    <rect class="cls-1" x="22" y="4" width="1" height="1"/>
    <rect class="cls-1" x="19" y="4" width="1" height="1"/>
    <rect class="cls-1" x="4" y="4" width="1" height="1"/>
    <rect class="cls-1" x="1" y="4" width="1" height="1"/>
    <rect class="cls-1" x="22" y="3" width="1" height="1"/>
    <rect class="cls-1" x="19" y="3" width="1" height="1"/>
    <rect class="cls-1" x="4" y="3" width="1" height="1"/>
    <rect class="cls-1" x="1" y="3" width="1" height="1"/>
    <rect class="cls-1" x="22" y="2" width="1" height="1"/>
    <rect class="cls-1" x="21" y="2" width="1" height="1"/>
    <rect class="cls-1" x="20" y="2" width="1" height="1"/>
    <rect class="cls-1" x="19" y="2" width="1" height="1"/>
    <rect class="cls-1" x="4" y="2" width="1" height="1"/>
    <rect class="cls-1" x="3" y="2" width="1" height="1"/>
    <rect class="cls-1" x="2" y="2" width="1" height="1"/>
    <rect class="cls-1" x="1" y="2" width="1" height="1"/>
    <rect class="cls-1" x="22" y="1" width="1" height="1"/>
    <rect class="cls-1" x="21" y="1" width="1" height="1"/>
    <rect class="cls-1" x="20" y="1" width="1" height="1"/>
    <rect class="cls-1" x="19" y="1" width="1" height="1"/>
    <rect class="cls-1" x="18" y="1" width="1" height="1"/>
    <rect class="cls-1" x="17" y="1" width="1" height="1"/>
    <rect class="cls-1" x="16" y="1" width="1" height="1"/>
    <rect class="cls-1" x="15" y="1" width="1" height="1"/>
    <rect class="cls-1" x="14" y="1" width="1" height="1"/>
    <rect class="cls-1" x="13" y="1" width="1" height="1"/>
    <rect class="cls-1" x="12" y="1" width="1" height="1"/>
    <rect class="cls-1" x="11" y="1" width="1" height="1"/>
    <rect class="cls-1" x="10" y="1" width="1" height="1"/>
    <rect class="cls-1" x="9" y="1" width="1" height="1"/>
    <rect class="cls-1" x="8" y="1" width="1" height="1"/>
    <rect class="cls-1" x="7" y="1" width="1" height="1"/>
    <rect class="cls-1" x="6" y="1" width="1" height="1"/>
    <rect class="cls-1" x="5" y="1" width="1" height="1"/>
    <rect class="cls-1" x="4" y="1" width="1" height="1"/>
    <rect class="cls-1" x="3" y="1" width="1" height="1"/>
    <rect class="cls-1" x="2" y="1" width="1" height="1"/>
    <rect class="cls-1" x="1" y="1" width="1" height="1"/>
    <rect class="cls-1" x="22" width="1" height="1"/>
    <rect class="cls-1" x="19" width="1" height="1"/>
    <rect class="cls-1" x="18" width="1" height="1"/>
    <rect class="cls-1" x="17" width="1" height="1"/>
    <rect class="cls-1" x="16" width="1" height="1"/>
    <rect class="cls-1" x="15" width="1" height="1"/>
    <rect class="cls-1" x="14" width="1" height="1"/>
    <rect class="cls-1" x="13" width="1" height="1"/>
    <rect class="cls-1" x="12" width="1" height="1"/>
    <rect class="cls-1" x="11" width="1" height="1"/>
    <rect class="cls-1" x="10" width="1" height="1"/>
    <rect class="cls-1" x="9" width="1" height="1"/>
    <rect class="cls-1" x="8" width="1" height="1"/>
    <rect class="cls-1" x="7" width="1" height="1"/>
    <rect class="cls-1" x="6" width="1" height="1"/>
    <rect class="cls-1" x="5" width="1" height="1"/>
    <rect class="cls-1" x="4" width="1" height="1"/>
    <rect class="cls-1" x="1" width="1" height="1"/>
  </g>
  <g>
    <rect class="cls-1" x="9.5" y="15" width="1" height="1"/>
    <rect class="cls-1" x="8.5" y="15" width="1" height="1"/>
    <rect class="cls-1" x="7.5" y="15" width="1" height="1"/>
    <rect class="cls-1" x="11.5" y="14" width="1" height="1"/>
    <rect class="cls-1" x="10.5" y="14" width="1" height="1"/>
    <rect class="cls-1" x="7.5" y="14" width="1" height="1"/>
    <rect class="cls-1" x="13.5" y="13" width="1" height="1"/>
    <rect class="cls-1" x="12.5" y="13" width="1" height="1"/>
    <rect class="cls-1" x="7.5" y="13" width="1" height="1"/>
    <rect class="cls-1" x="15.5" y="12" width="1" height="1"/>
    <rect class="cls-1" x="14.5" y="12" width="1" height="1"/>
    <rect class="cls-1" x="7.5" y="12" width="1" height="1"/>
    <rect class="cls-1" x="15.5" y="11" width="1" height="1"/>
    <rect class="cls-1" x="14.5" y="11" width="1" height="1"/>
    <rect class="cls-1" x="7.5" y="11" width="1" height="1"/>
    <rect class="cls-1" x="13.5" y="10" width="1" height="1"/>
    <rect class="cls-1" x="12.5" y="10" width="1" height="1"/>
    <rect class="cls-1" x="7.5" y="10" width="1" height="1"/>
    <rect class="cls-1" x="11.5" y="9" width="1" height="1"/>
    <rect class="cls-1" x="10.5" y="9" width="1" height="1"/>
    <rect class="cls-1" x="7.5" y="9" width="1" height="1"/>
    <rect class="cls-1" x="9.5" y="8" width="1" height="1"/>
    <rect class="cls-1" x="8.5" y="8" width="1" height="1"/>
    <rect class="cls-1" x="7.5" y="8" width="1" height="1"/>
  </g>
</svg>