<?xml version="1.0" encoding="UTF-8"?>
<svg id="Layer_1" data-name="Layer 1" xmlns="http://www.w3.org/2000/svg" viewBox="0 0 24 27">
  <defs>
    <style>
      .cls-1 {
        fill: #fff;
      }

      .cls-1, .cls-2, .cls-3 {
        stroke-width: 0px;
      }

      .cls-2 {
        fill: #0058f8;
      }

      .cls-3 {
        fill: #0000bc;
      }
    </style>
  </defs>
  <g>
    <rect class="cls-1" x="20" y="7" width="1" height="1"/>
    <rect class="cls-1" x="19" y="7" width="1" height="1"/>
    <rect class="cls-1" x="18" y="7" width="1" height="1"/>
    <rect class="cls-1" x="17" y="6" width="1" height="1"/>
    <rect class="cls-1" x="16" y="5" width="1" height="1"/>
    <rect class="cls-1" x="16" y="4" width="1" height="1"/>
    <rect class="cls-1" x="21" y="7" width="1" height="1"/>
    <rect class="cls-1" x="21" y="6" width="1" height="1"/>
    <rect class="cls-1" x="21" y="5" width="1" height="1"/>
    <rect class="cls-1" x="21" y="4" width="1" height="1"/>
    <rect class="cls-1" x="20" y="3" width="1" height="1"/>
    <rect class="cls-1" x="19" y="2" width="1" height="1"/>
    <rect class="cls-1" x="18" y="1" width="1" height="1"/>
    <rect class="cls-1" x="17" y="1" width="1" height="1"/>
    <rect class="cls-1" x="16" width="1" height="1"/>
    <rect class="cls-1" x="17" width="1" height="1"/>
    <rect class="cls-1" x="6" y="24" width="1" height="1"/>
    <rect class="cls-1" x="5" y="24" width="1" height="1"/>
    <rect class="cls-1" x="4" y="24" width="1" height="1"/>
    <rect class="cls-1" x="3" y="24" width="1" height="1"/>
    <rect class="cls-1" x="2" y="24" width="1" height="1"/>
    <rect class="cls-1" x="1" y="24" width="1" height="1"/>
    <rect class="cls-1" x="8" y="23" width="1" height="1"/>
    <rect class="cls-1" x="7" y="23" width="1" height="1"/>
    <rect class="cls-1" x="6" y="23" width="1" height="1"/>
    <rect class="cls-1" x="9" y="22" width="1" height="1"/>
    <rect class="cls-1" x="9" y="21" width="1" height="1"/>
    <rect class="cls-1" x="10" y="20" width="1" height="1"/>
    <rect class="cls-1" x="10" y="19" width="1" height="1"/>
    <rect class="cls-1" x="10" y="18" width="1" height="1"/>
    <rect class="cls-1" x="10" y="17" width="1" height="1"/>
    <rect class="cls-1" x="10" y="16" width="1" height="1"/>
    <rect class="cls-1" x="10" y="15" width="1" height="1"/>
    <rect class="cls-1" x="10" y="14" width="1" height="1"/>
    <rect class="cls-1" x="10" y="13" width="1" height="1"/>
    <rect class="cls-1" x="10" y="12" width="1" height="1"/>
    <rect class="cls-1" x="10" y="11" width="1" height="1"/>
    <rect class="cls-1" x="10" y="10" width="1" height="1"/>
    <rect class="cls-1" x="10" y="9" width="1" height="1"/>
    <rect class="cls-1" x="10" y="8" width="1" height="1"/>
    <rect class="cls-1" x="10" y="7" width="1" height="1"/>
    <rect class="cls-1" x="10" y="6" width="1" height="1"/>
    <rect class="cls-1" x="10" y="5" width="1" height="1"/>
    <rect class="cls-1" x="14" y="4" width="1" height="1"/>
    <rect class="cls-1" x="13" y="4" width="1" height="1"/>
    <rect class="cls-1" x="12" y="4" width="1" height="1"/>
    <rect class="cls-1" x="11" y="4" width="1" height="1"/>
    <rect class="cls-1" x="10" y="4" width="1" height="1"/>
    <rect class="cls-1" x="15" y="4" width="1" height="1"/>
    <rect class="cls-1" x="1" y="24" width="1" height="1"/>
    <rect class="cls-1" x="14" width="1" height="1"/>
    <rect class="cls-1" x="13" width="1" height="1"/>
    <rect class="cls-1" x="12" width="1" height="1"/>
    <rect class="cls-1" x="11" width="1" height="1"/>
    <rect class="cls-1" x="10" width="1" height="1"/>
    <rect class="cls-1" x="9" width="1" height="1"/>
    <rect class="cls-1" x="8" width="1" height="1"/>
    <rect class="cls-1" x="15" width="1" height="1"/>
    <rect class="cls-1" y="24" width="1" height="1"/>
    <rect class="cls-1" y="23" width="1" height="1"/>
    <rect class="cls-1" y="22" width="1" height="1"/>
    <rect class="cls-1" x="3" y="21" width="1" height="1"/>
    <rect class="cls-1" x="2" y="21" width="1" height="1"/>
    <rect class="cls-1" x="1" y="21" width="1" height="1"/>
    <rect class="cls-1" y="21" width="1" height="1"/>
    <rect class="cls-1" x="5" y="20" width="1" height="1"/>
    <rect class="cls-1" x="4" y="20" width="1" height="1"/>
    <rect class="cls-1" x="3" y="20" width="1" height="1"/>
    <rect class="cls-1" x="6" y="18" width="1" height="1"/>
    <rect class="cls-1" x="5" y="19" width="1" height="1"/>
    <rect class="cls-1" x="6" y="17" width="1" height="1"/>
    <rect class="cls-1" x="6" y="16" width="1" height="1"/>
    <rect class="cls-1" x="6" y="15" width="1" height="1"/>
    <rect class="cls-1" x="6" y="13" width="1" height="1"/>
    <rect class="cls-1" x="6" y="12" width="1" height="1"/>
    <rect class="cls-1" x="6" y="11" width="1" height="1"/>
    <rect class="cls-1" x="6" y="10" width="1" height="1"/>
    <rect class="cls-1" x="6" y="9" width="1" height="1"/>
    <rect class="cls-1" x="6" y="8" width="1" height="1"/>
    <rect class="cls-1" x="6" y="7" width="1" height="1"/>
    <rect class="cls-1" x="6" y="6" width="1" height="1"/>
    <rect class="cls-1" x="6" y="5" width="1" height="1"/>
    <rect class="cls-1" x="6" y="4" width="1" height="1"/>
    <rect class="cls-1" x="6" y="3" width="1" height="1"/>
    <rect class="cls-1" x="6" y="2" width="1" height="1"/>
    <rect class="cls-1" x="6" y="14" width="1" height="1"/>
    <rect class="cls-1" x="7" y="1" width="1" height="1"/>
  </g>
  <g>
    <rect class="cls-2" x="5" y="23" width="1" height="1"/>
    <rect class="cls-2" x="4" y="23" width="1" height="1"/>
    <rect class="cls-2" x="3" y="23" width="1" height="1"/>
    <rect class="cls-2" x="2" y="23" width="1" height="1"/>
    <rect class="cls-2" x="1" y="23" width="1" height="1"/>
    <rect class="cls-2" x="8" y="22" width="1" height="1"/>
    <rect class="cls-2" x="7" y="22" width="1" height="1"/>
    <rect class="cls-2" x="6" y="22" width="1" height="1"/>
    <rect class="cls-2" x="5" y="22" width="1" height="1"/>
    <rect class="cls-2" x="4" y="22" width="1" height="1"/>
    <rect class="cls-2" x="3" y="22" width="1" height="1"/>
    <rect class="cls-2" x="2" y="22" width="1" height="1"/>
    <rect class="cls-2" x="1" y="22" width="1" height="1"/>
    <rect class="cls-2" x="8" y="21" width="1" height="1"/>
    <rect class="cls-2" x="7" y="21" width="1" height="1"/>
    <rect class="cls-2" x="6" y="21" width="1" height="1"/>
    <rect class="cls-2" x="5" y="21" width="1" height="1"/>
    <rect class="cls-2" x="4" y="21" width="1" height="1"/>
    <rect class="cls-2" x="9" y="20" width="1" height="1"/>
    <rect class="cls-2" x="8" y="20" width="1" height="1"/>
    <rect class="cls-2" x="7" y="20" width="1" height="1"/>
    <rect class="cls-2" x="6" y="20" width="1" height="1"/>
    <rect class="cls-2" x="9" y="19" width="1" height="1"/>
    <rect class="cls-2" x="8" y="19" width="1" height="1"/>
    <rect class="cls-2" x="7" y="19" width="1" height="1"/>
    <rect class="cls-2" x="6" y="19" width="1" height="1"/>
    <rect class="cls-2" x="9" y="18" width="1" height="1"/>
    <rect class="cls-2" x="8" y="18" width="1" height="1"/>
    <rect class="cls-2" x="7" y="18" width="1" height="1"/>
    <rect class="cls-2" x="9" y="17" width="1" height="1"/>
    <rect class="cls-2" x="8" y="17" width="1" height="1"/>
    <rect class="cls-2" x="7" y="17" width="1" height="1"/>
    <rect class="cls-2" x="9" y="16" width="1" height="1"/>
    <rect class="cls-2" x="8" y="16" width="1" height="1"/>
    <rect class="cls-2" x="7" y="16" width="1" height="1"/>
    <rect class="cls-2" x="9" y="15" width="1" height="1"/>
    <rect class="cls-2" x="8" y="15" width="1" height="1"/>
    <rect class="cls-2" x="7" y="15" width="1" height="1"/>
    <rect class="cls-2" x="9" y="14" width="1" height="1"/>
    <rect class="cls-2" x="8" y="14" width="1" height="1"/>
    <rect class="cls-2" x="7" y="14" width="1" height="1"/>
    <rect class="cls-2" x="9" y="13" width="1" height="1"/>
    <rect class="cls-2" x="8" y="13" width="1" height="1"/>
    <rect class="cls-2" x="7" y="13" width="1" height="1"/>
    <rect class="cls-2" x="9" y="12" width="1" height="1"/>
    <rect class="cls-2" x="8" y="12" width="1" height="1"/>
    <rect class="cls-2" x="7" y="12" width="1" height="1"/>
    <rect class="cls-2" x="9" y="11" width="1" height="1"/>
    <rect class="cls-2" x="8" y="11" width="1" height="1"/>
    <rect class="cls-2" x="7" y="11" width="1" height="1"/>
    <rect class="cls-2" x="9" y="10" width="1" height="1"/>
    <rect class="cls-2" x="8" y="10" width="1" height="1"/>
    <rect class="cls-2" x="7" y="10" width="1" height="1"/>
    <rect class="cls-2" x="9" y="9" width="1" height="1"/>
    <rect class="cls-2" x="8" y="9" width="1" height="1"/>
    <rect class="cls-2" x="7" y="9" width="1" height="1"/>
    <rect class="cls-2" x="9" y="8" width="1" height="1"/>
    <rect class="cls-2" x="8" y="8" width="1" height="1"/>
    <rect class="cls-2" x="7" y="8" width="1" height="1"/>
    <rect class="cls-2" x="9" y="7" width="1" height="1"/>
    <rect class="cls-2" x="8" y="7" width="1" height="1"/>
    <rect class="cls-2" x="7" y="7" width="1" height="1"/>
    <rect class="cls-2" x="9" y="6" width="1" height="1"/>
    <rect class="cls-2" x="8" y="6" width="1" height="1"/>
    <rect class="cls-2" x="7" y="6" width="1" height="1"/>
    <rect class="cls-2" x="9" y="5" width="1" height="1"/>
    <rect class="cls-2" x="8" y="5" width="1" height="1"/>
    <rect class="cls-2" x="7" y="5" width="1" height="1"/>
    <rect class="cls-2" x="9" y="4" width="1" height="1"/>
    <rect class="cls-2" x="8" y="4" width="1" height="1"/>
    <rect class="cls-2" x="7" y="4" width="1" height="1"/>
    <rect class="cls-2" x="14" y="3" width="1" height="1"/>
    <rect class="cls-2" x="13" y="3" width="1" height="1"/>
    <rect class="cls-2" x="12" y="3" width="1" height="1"/>
    <rect class="cls-2" x="11" y="3" width="1" height="1"/>
    <rect class="cls-2" x="10" y="3" width="1" height="1"/>
    <rect class="cls-2" x="9" y="3" width="1" height="1"/>
    <rect class="cls-2" x="8" y="3" width="1" height="1"/>
    <rect class="cls-2" x="7" y="3" width="1" height="1"/>
    <rect class="cls-2" x="14" y="2" width="1" height="1"/>
    <rect class="cls-2" x="13" y="2" width="1" height="1"/>
    <rect class="cls-2" x="12" y="2" width="1" height="1"/>
    <rect class="cls-2" x="11" y="2" width="1" height="1"/>
    <rect class="cls-2" x="10" y="2" width="1" height="1"/>
    <rect class="cls-2" x="9" y="2" width="1" height="1"/>
    <rect class="cls-2" x="8" y="2" width="1" height="1"/>
    <rect class="cls-2" x="7" y="2" width="1" height="1"/>
    <rect class="cls-2" x="14" y="1" width="1" height="1"/>
    <rect class="cls-2" x="13" y="1" width="1" height="1"/>
    <rect class="cls-2" x="12" y="1" width="1" height="1"/>
    <rect class="cls-2" x="11" y="1" width="1" height="1"/>
    <rect class="cls-2" x="10" y="1" width="1" height="1"/>
    <rect class="cls-2" x="9" y="1" width="1" height="1"/>
    <rect class="cls-2" x="8" y="1" width="1" height="1"/>
    <rect class="cls-2" x="15" y="3" width="1" height="1"/>
    <rect class="cls-2" x="15" y="2" width="1" height="1"/>
    <rect class="cls-2" x="15" y="1" width="1" height="1"/>
    <rect class="cls-2" x="1" y="23" width="1" height="1"/>
    <rect class="cls-2" x="1" y="22" width="1" height="1"/>
    <g>
      <rect class="cls-2" x="20" y="6" width="1" height="1"/>
      <rect class="cls-2" x="19" y="6" width="1" height="1"/>
      <rect class="cls-2" x="18" y="6" width="1" height="1"/>
      <rect class="cls-2" x="20" y="5" width="1" height="1"/>
      <rect class="cls-2" x="19" y="5" width="1" height="1"/>
      <rect class="cls-2" x="18" y="5" width="1" height="1"/>
      <rect class="cls-2" x="17" y="5" width="1" height="1"/>
      <rect class="cls-2" x="20" y="4" width="1" height="1"/>
      <rect class="cls-2" x="19" y="4" width="1" height="1"/>
      <rect class="cls-2" x="18" y="4" width="1" height="1"/>
      <rect class="cls-2" x="17" y="4" width="1" height="1"/>
      <rect class="cls-2" x="19" y="3" width="1" height="1"/>
      <rect class="cls-2" x="18" y="3" width="1" height="1"/>
      <rect class="cls-2" x="17" y="3" width="1" height="1"/>
      <rect class="cls-2" x="16" y="3" width="1" height="1"/>
      <rect class="cls-2" x="18" y="2" width="1" height="1"/>
      <rect class="cls-2" x="17" y="2" width="1" height="1"/>
      <rect class="cls-2" x="16" y="2" width="1" height="1"/>
      <rect class="cls-2" x="16" y="1" width="1" height="1"/>
    </g>
  </g>
  <g>
    <rect class="cls-3" x="8" y="26" width="1" height="1"/>
    <rect class="cls-3" x="7" y="26" width="1" height="1"/>
    <rect class="cls-3" x="6" y="26" width="1" height="1"/>
    <rect class="cls-3" x="5" y="26" width="1" height="1"/>
    <rect class="cls-3" x="4" y="26" width="1" height="1"/>
    <rect class="cls-3" x="3" y="26" width="1" height="1"/>
    <rect class="cls-3" x="9" y="25" width="1" height="1"/>
    <rect class="cls-3" x="8" y="25" width="1" height="1"/>
    <rect class="cls-3" x="7" y="25" width="1" height="1"/>
    <rect class="cls-3" x="6" y="25" width="1" height="1"/>
    <rect class="cls-3" x="5" y="25" width="1" height="1"/>
    <rect class="cls-3" x="4" y="25" width="1" height="1"/>
    <rect class="cls-3" x="3" y="25" width="1" height="1"/>
    <rect class="cls-3" x="2" y="25" width="1" height="1"/>
    <rect class="cls-3" x="10" y="24" width="1" height="1"/>
    <rect class="cls-3" x="9" y="24" width="1" height="1"/>
    <rect class="cls-3" x="8" y="24" width="1" height="1"/>
    <rect class="cls-3" x="7" y="24" width="1" height="1"/>
    <rect class="cls-3" x="11" y="23" width="1" height="1"/>
    <rect class="cls-3" x="10" y="23" width="1" height="1"/>
    <rect class="cls-3" x="9" y="23" width="1" height="1"/>
    <rect class="cls-3" x="11" y="22" width="1" height="1"/>
    <rect class="cls-3" x="10" y="22" width="1" height="1"/>
    <rect class="cls-3" x="11" y="21" width="1" height="1"/>
    <rect class="cls-3" x="10" y="21" width="1" height="1"/>
    <rect class="cls-3" x="12" y="20" width="1" height="1"/>
    <rect class="cls-3" x="11" y="20" width="1" height="1"/>
    <rect class="cls-3" x="12" y="19" width="1" height="1"/>
    <rect class="cls-3" x="11" y="19" width="1" height="1"/>
    <rect class="cls-3" x="12" y="18" width="1" height="1"/>
    <rect class="cls-3" x="11" y="18" width="1" height="1"/>
    <rect class="cls-3" x="12" y="17" width="1" height="1"/>
    <rect class="cls-3" x="11" y="17" width="1" height="1"/>
    <rect class="cls-3" x="12" y="16" width="1" height="1"/>
    <rect class="cls-3" x="11" y="16" width="1" height="1"/>
    <rect class="cls-3" x="12" y="15" width="1" height="1"/>
    <rect class="cls-3" x="11" y="15" width="1" height="1"/>
    <rect class="cls-3" x="12" y="14" width="1" height="1"/>
    <rect class="cls-3" x="11" y="14" width="1" height="1"/>
    <rect class="cls-3" x="12" y="13" width="1" height="1"/>
    <rect class="cls-3" x="11" y="13" width="1" height="1"/>
    <rect class="cls-3" x="12" y="12" width="1" height="1"/>
    <rect class="cls-3" x="11" y="12" width="1" height="1"/>
    <rect class="cls-3" x="12" y="11" width="1" height="1"/>
    <rect class="cls-3" x="11" y="11" width="1" height="1"/>
    <rect class="cls-3" x="12" y="10" width="1" height="1"/>
    <rect class="cls-3" x="11" y="10" width="1" height="1"/>
    <rect class="cls-3" x="22" y="9" width="1" height="1"/>
    <rect class="cls-3" x="21" y="9" width="1" height="1"/>
    <rect class="cls-3" x="20" y="9" width="1" height="1"/>
    <rect class="cls-3" x="12" y="9" width="1" height="1"/>
    <rect class="cls-3" x="11" y="9" width="1" height="1"/>
    <rect class="cls-3" x="22" y="8" width="1" height="1"/>
    <rect class="cls-3" x="21" y="8" width="1" height="1"/>
    <rect class="cls-3" x="20" y="8" width="1" height="1"/>
    <rect class="cls-3" x="19" y="8" width="1" height="1"/>
    <rect class="cls-3" x="18" y="8" width="1" height="1"/>
    <rect class="cls-3" x="12" y="8" width="1" height="1"/>
    <rect class="cls-3" x="11" y="8" width="1" height="1"/>
    <rect class="cls-3" x="22" y="7" width="1" height="1"/>
    <rect class="cls-3" x="12" y="7" width="1" height="1"/>
    <rect class="cls-3" x="11" y="7" width="1" height="1"/>
    <rect class="cls-3" x="22" y="6" width="1" height="1"/>
    <rect class="cls-3" x="16" y="6" width="1" height="1"/>
    <rect class="cls-3" x="13" y="6" width="1" height="1"/>
    <rect class="cls-3" x="12" y="6" width="1" height="1"/>
    <rect class="cls-3" x="11" y="6" width="1" height="1"/>
    <rect class="cls-3" x="22" y="5" width="1" height="1"/>
    <rect class="cls-3" x="15" y="5" width="1" height="1"/>
    <rect class="cls-3" x="14" y="5" width="1" height="1"/>
    <rect class="cls-3" x="13" y="5" width="1" height="1"/>
    <rect class="cls-3" x="12" y="5" width="1" height="1"/>
    <rect class="cls-3" x="11" y="5" width="1" height="1"/>
    <rect class="cls-3" x="23" y="9" width="1" height="1"/>
    <rect class="cls-3" x="23" y="8" width="1" height="1"/>
    <rect class="cls-3" x="23" y="7" width="1" height="1"/>
    <rect class="cls-3" x="23" y="6" width="1" height="1"/>
    <rect class="cls-3" x="23" y="5" width="1" height="1"/>
    <rect class="cls-3" x="22" y="4" width="1" height="1"/>
    <rect class="cls-3" x="21" y="3" width="1" height="1"/>
    <rect class="cls-3" x="20" y="2" width="1" height="1"/>
    <rect class="cls-3" x="2" y="26" width="1" height="1"/>
    <rect class="cls-3" x="1" y="25" width="1" height="1"/>
  </g>
</svg>