<?xml version="1.0" encoding="UTF-8"?>
<svg id="Layer_1" data-name="Layer 1" xmlns="http://www.w3.org/2000/svg" viewBox="0 0 24 24">
  <defs>
    <style>
      .cls-1 {
        stroke-width: 0px;
      }
    </style>
  </defs>
  <g>
    <rect class="cls-1" x="22" y="21" width="1" height="1"/>
    <rect class="cls-1" x="21" y="21" width="1" height="1"/>
    <rect class="cls-1" x="20" y="21" width="1" height="1"/>
    <rect class="cls-1" x="19" y="21" width="1" height="1"/>
    <rect class="cls-1" x="18" y="21" width="1" height="1"/>
    <rect class="cls-1" x="17" y="21" width="1" height="1"/>
    <rect class="cls-1" x="16" y="21" width="1" height="1"/>
    <rect class="cls-1" x="15" y="21" width="1" height="1"/>
    <rect class="cls-1" x="14" y="21" width="1" height="1"/>
    <rect class="cls-1" x="13" y="21" width="1" height="1"/>
    <rect class="cls-1" x="12" y="21" width="1" height="1"/>
    <rect class="cls-1" x="11" y="21" width="1" height="1"/>
    <rect class="cls-1" x="10" y="21" width="1" height="1"/>
    <rect class="cls-1" x="9" y="21" width="1" height="1"/>
    <rect class="cls-1" x="8" y="21" width="1" height="1"/>
    <rect class="cls-1" x="7" y="21" width="1" height="1"/>
    <rect class="cls-1" x="6" y="21" width="1" height="1"/>
    <rect class="cls-1" x="5" y="21" width="1" height="1"/>
    <rect class="cls-1" x="4" y="21" width="1" height="1"/>
    <rect class="cls-1" x="3" y="21" width="1" height="1"/>
    <rect class="cls-1" x="2" y="21" width="1" height="1"/>
    <rect class="cls-1" x="1" y="21" width="1" height="1"/>
    <rect class="cls-1" x="23" y="20" width="1" height="1"/>
    <rect class="cls-1" x="22" y="20" width="1" height="1"/>
    <rect class="cls-1" x="21" y="20" width="1" height="1"/>
    <rect class="cls-1" x="20" y="20" width="1" height="1"/>
    <rect class="cls-1" x="19" y="20" width="1" height="1"/>
    <rect class="cls-1" x="18" y="20" width="1" height="1"/>
    <rect class="cls-1" x="17" y="20" width="1" height="1"/>
    <rect class="cls-1" x="16" y="20" width="1" height="1"/>
    <rect class="cls-1" x="15" y="20" width="1" height="1"/>
    <rect class="cls-1" x="14" y="20" width="1" height="1"/>
    <rect class="cls-1" x="13" y="20" width="1" height="1"/>
    <rect class="cls-1" x="12" y="20" width="1" height="1"/>
    <rect class="cls-1" x="11" y="20" width="1" height="1"/>
    <rect class="cls-1" x="10" y="20" width="1" height="1"/>
    <rect class="cls-1" x="9" y="20" width="1" height="1"/>
    <rect class="cls-1" x="8" y="20" width="1" height="1"/>
    <rect class="cls-1" x="7" y="20" width="1" height="1"/>
    <rect class="cls-1" x="6" y="20" width="1" height="1"/>
    <rect class="cls-1" x="5" y="20" width="1" height="1"/>
    <rect class="cls-1" x="4" y="20" width="1" height="1"/>
    <rect class="cls-1" x="3" y="20" width="1" height="1"/>
    <rect class="cls-1" x="2" y="20" width="1" height="1"/>
    <rect class="cls-1" x="1" y="20" width="1" height="1"/>
    <rect class="cls-1" x="0" y="20" width="1" height="1"/>
    <rect class="cls-1" x="23" y="19" width="1" height="1"/>
    <rect class="cls-1" x="22" y="19" width="1" height="1"/>
    <rect class="cls-1" x="21" y="19" width="1" height="1"/>
    <rect class="cls-1" x="2" y="19" width="1" height="1"/>
    <rect class="cls-1" x="1" y="19" width="1" height="1"/>
    <rect class="cls-1" x="0" y="19" width="1" height="1"/>
    <rect class="cls-1" x="23" y="18" width="1" height="1"/>
    <rect class="cls-1" x="22" y="18" width="1" height="1"/>
    <rect class="cls-1" x="1" y="18" width="1" height="1"/>
    <rect class="cls-1" x="0" y="18" width="1" height="1"/>
    <rect class="cls-1" x="23" y="17" width="1" height="1"/>
    <rect class="cls-1" x="22" y="17" width="1" height="1"/>
    <rect class="cls-1" x="1" y="17" width="1" height="1"/>
    <rect class="cls-1" x="0" y="17" width="1" height="1"/>
    <rect class="cls-1" x="23" y="16" width="1" height="1"/>
    <rect class="cls-1" x="22" y="16" width="1" height="1"/>
    <rect class="cls-1" x="1" y="16" width="1" height="1"/>
    <rect class="cls-1" x="0" y="16" width="1" height="1"/>
    <rect class="cls-1" x="23" y="15" width="1" height="1"/>
    <rect class="cls-1" x="22" y="15" width="1" height="1"/>
    <rect class="cls-1" x="1" y="15" width="1" height="1"/>
    <rect class="cls-1" x="0" y="15" width="1" height="1"/>
    <rect class="cls-1" x="23" y="14" width="1" height="1"/>
    <rect class="cls-1" x="22" y="14" width="1" height="1"/>
    <rect class="cls-1" x="1" y="14" width="1" height="1"/>
    <rect class="cls-1" x="0" y="14" width="1" height="1"/>
    <rect class="cls-1" x="23" y="13" width="1" height="1"/>
    <rect class="cls-1" x="22" y="13" width="1" height="1"/>
    <rect class="cls-1" x="1" y="13" width="1" height="1"/>
    <rect class="cls-1" x="0" y="13" width="1" height="1"/>
    <rect class="cls-1" x="23" y="12" width="1" height="1"/>
    <rect class="cls-1" x="22" y="12" width="1" height="1"/>
    <rect class="cls-1" x="1" y="12" width="1" height="1"/>
    <rect class="cls-1" x="0" y="12" width="1" height="1"/>
    <rect class="cls-1" x="23" y="11" width="1" height="1"/>
    <rect class="cls-1" x="22" y="11" width="1" height="1"/>
    <rect class="cls-1" x="1" y="11" width="1" height="1"/>
    <rect class="cls-1" x="0" y="11" width="1" height="1"/>
    <rect class="cls-1" x="23" y="10" width="1" height="1"/>
    <rect class="cls-1" x="22" y="10" width="1" height="1"/>
    <rect class="cls-1" x="1" y="10" width="1" height="1"/>
    <rect class="cls-1" x="0" y="10" width="1" height="1"/>
    <rect class="cls-1" x="23" y="9" width="1" height="1"/>
    <rect class="cls-1" x="22" y="9" width="1" height="1"/>
    <rect class="cls-1" x="1" y="9" width="1" height="1"/>
    <rect class="cls-1" x="0" y="9" width="1" height="1"/>
    <rect class="cls-1" x="23" y="8" width="1" height="1"/>
    <rect class="cls-1" x="22" y="8" width="1" height="1"/>
    <rect class="cls-1" x="1" y="8" width="1" height="1"/>
    <rect class="cls-1" x="0" y="8" width="1" height="1"/>
    <rect class="cls-1" x="23" y="7" width="1" height="1"/>
    <rect class="cls-1" x="22" y="7" width="1" height="1"/>
    <rect class="cls-1" x="21" y="7" width="1" height="1"/>
    <rect class="cls-1" x="20" y="7" width="1" height="1"/>
    <rect class="cls-1" x="19" y="7" width="1" height="1"/>
    <rect class="cls-1" x="18" y="7" width="1" height="1"/>
    <rect class="cls-1" x="17" y="7" width="1" height="1"/>
    <rect class="cls-1" x="16" y="7" width="1" height="1"/>
    <rect class="cls-1" x="15" y="7" width="1" height="1"/>
    <rect class="cls-1" x="14" y="7" width="1" height="1"/>
    <rect class="cls-1" x="13" y="7" width="1" height="1"/>
    <rect class="cls-1" x="12" y="7" width="1" height="1"/>
    <rect class="cls-1" x="11" y="7" width="1" height="1"/>
    <rect class="cls-1" x="10" y="7" width="1" height="1"/>
    <rect class="cls-1" x="9" y="7" width="1" height="1"/>
    <rect class="cls-1" x="8" y="7" width="1" height="1"/>
    <rect class="cls-1" x="7" y="7" width="1" height="1"/>
    <rect class="cls-1" x="6" y="7" width="1" height="1"/>
    <rect class="cls-1" x="5" y="7" width="1" height="1"/>
    <rect class="cls-1" x="4" y="7" width="1" height="1"/>
    <rect class="cls-1" x="3" y="7" width="1" height="1"/>
    <rect class="cls-1" x="2" y="7" width="1" height="1"/>
    <rect class="cls-1" x="1" y="7" width="1" height="1"/>
    <rect class="cls-1" x="0" y="7" width="1" height="1"/>
    <rect class="cls-1" x="23" y="6" width="1" height="1"/>
    <rect class="cls-1" x="22" y="6" width="1" height="1"/>
    <rect class="cls-1" x="1" y="6" width="1" height="1"/>
    <rect class="cls-1" x="0" y="6" width="1" height="1"/>
    <rect class="cls-1" x="23" y="5" width="1" height="1"/>
    <rect class="cls-1" x="22" y="5" width="1" height="1"/>
    <rect class="cls-1" x="19" y="5" width="1" height="1"/>
    <rect class="cls-1" x="17" y="5" width="1" height="1"/>
    <rect class="cls-1" x="15" y="5" width="1" height="1"/>
    <rect class="cls-1" x="1" y="5" width="1" height="1"/>
    <rect class="cls-1" x="0" y="5" width="1" height="1"/>
    <rect class="cls-1" x="23" y="4" width="1" height="1"/>
    <rect class="cls-1" x="22" y="4" width="1" height="1"/>
    <rect class="cls-1" x="21" y="4" width="1" height="1"/>
    <rect class="cls-1" x="2" y="4" width="1" height="1"/>
    <rect class="cls-1" x="1" y="4" width="1" height="1"/>
    <rect class="cls-1" x="0" y="4" width="1" height="1"/>
    <rect class="cls-1" x="23" y="3" width="1" height="1"/>
    <rect class="cls-1" x="22" y="3" width="1" height="1"/>
    <rect class="cls-1" x="21" y="3" width="1" height="1"/>
    <rect class="cls-1" x="20" y="3" width="1" height="1"/>
    <rect class="cls-1" x="19" y="3" width="1" height="1"/>
    <rect class="cls-1" x="18" y="3" width="1" height="1"/>
    <rect class="cls-1" x="17" y="3" width="1" height="1"/>
    <rect class="cls-1" x="16" y="3" width="1" height="1"/>
    <rect class="cls-1" x="15" y="3" width="1" height="1"/>
    <rect class="cls-1" x="14" y="3" width="1" height="1"/>
    <rect class="cls-1" x="13" y="3" width="1" height="1"/>
    <rect class="cls-1" x="12" y="3" width="1" height="1"/>
    <rect class="cls-1" x="11" y="3" width="1" height="1"/>
    <rect class="cls-1" x="10" y="3" width="1" height="1"/>
    <rect class="cls-1" x="9" y="3" width="1" height="1"/>
    <rect class="cls-1" x="8" y="3" width="1" height="1"/>
    <rect class="cls-1" x="7" y="3" width="1" height="1"/>
    <rect class="cls-1" x="6" y="3" width="1" height="1"/>
    <rect class="cls-1" x="5" y="3" width="1" height="1"/>
    <rect class="cls-1" x="4" y="3" width="1" height="1"/>
    <rect class="cls-1" x="3" y="3" width="1" height="1"/>
    <rect class="cls-1" x="2" y="3" width="1" height="1"/>
    <rect class="cls-1" x="1" y="3" width="1" height="1"/>
    <rect class="cls-1" x="0" y="3" width="1" height="1"/>
    <rect class="cls-1" x="22" y="2" width="1" height="1"/>
    <rect class="cls-1" x="21" y="2" width="1" height="1"/>
    <rect class="cls-1" x="20" y="2" width="1" height="1"/>
    <rect class="cls-1" x="19" y="2" width="1" height="1"/>
    <rect class="cls-1" x="18" y="2" width="1" height="1"/>
    <rect class="cls-1" x="17" y="2" width="1" height="1"/>
    <rect class="cls-1" x="16" y="2" width="1" height="1"/>
    <rect class="cls-1" x="15" y="2" width="1" height="1"/>
    <rect class="cls-1" x="14" y="2" width="1" height="1"/>
    <rect class="cls-1" x="13" y="2" width="1" height="1"/>
    <rect class="cls-1" x="12" y="2" width="1" height="1"/>
    <rect class="cls-1" x="11" y="2" width="1" height="1"/>
    <rect class="cls-1" x="10" y="2" width="1" height="1"/>
    <rect class="cls-1" x="9" y="2" width="1" height="1"/>
    <rect class="cls-1" x="8" y="2" width="1" height="1"/>
    <rect class="cls-1" x="7" y="2" width="1" height="1"/>
    <rect class="cls-1" x="6" y="2" width="1" height="1"/>
    <rect class="cls-1" x="5" y="2" width="1" height="1"/>
    <rect class="cls-1" x="4" y="2" width="1" height="1"/>
    <rect class="cls-1" x="3" y="2" width="1" height="1"/>
    <rect class="cls-1" x="2" y="2" width="1" height="1"/>
    <rect class="cls-1" x="1" y="2" width="1" height="1"/>
  </g>
  <g>
    <rect class="cls-1" x="14.94" y="15.46" width="1" height="1"/>
    <rect class="cls-1" x="13.94" y="15.46" width="1" height="1"/>
    <rect class="cls-1" x="8.94" y="15.46" width="1" height="1"/>
    <rect class="cls-1" x="7.94" y="15.46" width="1" height="1"/>
    <rect class="cls-1" x="15.94" y="14.46" width="1" height="1"/>
    <rect class="cls-1" x="14.94" y="14.46" width="1" height="1"/>
    <rect class="cls-1" x="7.94" y="14.46" width="1" height="1"/>
    <rect class="cls-1" x="6.94" y="14.46" width="1" height="1"/>
    <rect class="cls-1" x="16.94" y="13.46" width="1" height="1"/>
    <rect class="cls-1" x="15.94" y="13.46" width="1" height="1"/>
    <rect class="cls-1" x="6.94" y="13.46" width="1" height="1"/>
    <rect class="cls-1" x="5.94" y="13.46" width="1" height="1"/>
    <rect class="cls-1" x="15.94" y="12.46" width="1" height="1"/>
    <rect class="cls-1" x="14.94" y="12.46" width="1" height="1"/>
    <rect class="cls-1" x="7.94" y="12.46" width="1" height="1"/>
    <rect class="cls-1" x="6.94" y="12.46" width="1" height="1"/>
    <rect class="cls-1" x="14.94" y="11.46" width="1" height="1"/>
    <rect class="cls-1" x="13.94" y="11.46" width="1" height="1"/>
    <rect class="cls-1" x="8.94" y="11.46" width="1" height="1"/>
    <rect class="cls-1" x="7.94" y="11.46" width="1" height="1"/>
    <rect class="cls-1" x="13.94" y="10.46" width="1" height="1"/>
    <rect class="cls-1" x="8.94" y="10.46" width="1" height="1"/>
    <rect class="cls-1" x="8.94" y="16.46" width="1" height="1"/>
    <rect class="cls-1" x="13.94" y="16.46" width="1" height="1"/>
  </g>
</svg>