<?xml version="1.0" encoding="UTF-8"?>
<svg id="Layer_1" data-name="Layer 1" xmlns="http://www.w3.org/2000/svg" viewBox="0 0 24 24">
  <defs>
    <style>
      .cls-1 {
        stroke-width: 0px;
      }
    </style>
  </defs>
  <g>
    <rect class="cls-1" x="4.88" y="20.82" width=".24" height=".24"/>
    <rect class="cls-1" x="4.64" y="20.82" width=".24" height=".24"/>
    <rect class="cls-1" x="4.39" y="20.82" width=".24" height=".24"/>
    <rect class="cls-1" x="4.15" y="20.82" width=".24" height=".24"/>
    <rect class="cls-1" x="3.9" y="20.82" width=".24" height=".24"/>
    <rect class="cls-1" x="5.37" y="20.58" width=".24" height=".24"/>
    <rect class="cls-1" x="5.13" y="20.58" width=".24" height=".24"/>
    <rect class="cls-1" x="4.88" y="20.58" width=".24" height=".24"/>
    <rect class="cls-1" x="4.64" y="20.58" width=".24" height=".24"/>
    <rect class="cls-1" x="4.39" y="20.58" width=".24" height=".24"/>
    <rect class="cls-1" x="4.15" y="20.58" width=".24" height=".24"/>
    <rect class="cls-1" x="3.9" y="20.58" width=".24" height=".24"/>
    <rect class="cls-1" x="3.66" y="20.58" width=".24" height=".24"/>
    <rect class="cls-1" x="3.41" y="20.58" width=".24" height=".24"/>
    <rect class="cls-1" x="5.62" y="20.33" width=".24" height=".24"/>
    <rect class="cls-1" x="5.37" y="20.33" width=".24" height=".24"/>
    <rect class="cls-1" x="5.13" y="20.33" width=".24" height=".24"/>
    <rect class="cls-1" x="4.88" y="20.33" width=".24" height=".24"/>
    <rect class="cls-1" x="4.64" y="20.33" width=".24" height=".24"/>
    <rect class="cls-1" x="4.39" y="20.33" width=".24" height=".24"/>
    <rect class="cls-1" x="4.15" y="20.33" width=".24" height=".24"/>
    <rect class="cls-1" x="3.9" y="20.33" width=".24" height=".24"/>
    <rect class="cls-1" x="3.66" y="20.33" width=".24" height=".24"/>
    <rect class="cls-1" x="3.41" y="20.33" width=".24" height=".24"/>
    <rect class="cls-1" x="3.17" y="20.33" width=".24" height=".24"/>
    <rect class="cls-1" x="5.62" y="20.09" width=".24" height=".24"/>
    <rect class="cls-1" x="5.37" y="20.09" width=".24" height=".24"/>
    <rect class="cls-1" x="5.13" y="20.09" width=".24" height=".24"/>
    <rect class="cls-1" x="4.88" y="20.09" width=".24" height=".24"/>
    <rect class="cls-1" x="4.64" y="20.09" width=".24" height=".24"/>
    <rect class="cls-1" x="4.39" y="20.09" width=".24" height=".24"/>
    <rect class="cls-1" x="4.15" y="20.09" width=".24" height=".24"/>
    <rect class="cls-1" x="3.9" y="20.09" width=".24" height=".24"/>
    <rect class="cls-1" x="3.66" y="20.09" width=".24" height=".24"/>
    <rect class="cls-1" x="3.41" y="20.09" width=".24" height=".24"/>
    <rect class="cls-1" x="3.17" y="20.09" width=".24" height=".24"/>
    <rect class="cls-1" x="2.92" y="20.09" width=".24" height=".24"/>
    <rect class="cls-1" x="5.62" y="19.85" width=".24" height=".24"/>
    <rect class="cls-1" x="5.37" y="19.85" width=".24" height=".24"/>
    <rect class="cls-1" x="5.13" y="19.85" width=".24" height=".24"/>
    <rect class="cls-1" x="4.88" y="19.85" width=".24" height=".24"/>
    <rect class="cls-1" x="4.64" y="19.85" width=".24" height=".24"/>
    <rect class="cls-1" x="4.39" y="19.85" width=".24" height=".24"/>
    <rect class="cls-1" x="4.15" y="19.85" width=".24" height=".24"/>
    <rect class="cls-1" x="3.9" y="19.85" width=".24" height=".24"/>
    <rect class="cls-1" x="3.66" y="19.85" width=".24" height=".24"/>
    <rect class="cls-1" x="3.41" y="19.85" width=".24" height=".24"/>
    <rect class="cls-1" x="3.17" y="19.85" width=".24" height=".24"/>
    <rect class="cls-1" x="2.92" y="19.85" width=".24" height=".24"/>
    <rect class="cls-1" x="6.84" y="19.6" width=".24" height=".24"/>
    <rect class="cls-1" x="6.6" y="19.6" width=".24" height=".24"/>
    <rect class="cls-1" x="6.35" y="19.6" width=".24" height=".24"/>
    <rect class="cls-1" x="6.11" y="19.6" width=".24" height=".24"/>
    <rect class="cls-1" x="5.86" y="19.6" width=".24" height=".24"/>
    <rect class="cls-1" x="5.62" y="19.6" width=".24" height=".24"/>
    <rect class="cls-1" x="5.37" y="19.6" width=".24" height=".24"/>
    <rect class="cls-1" x="5.13" y="19.6" width=".24" height=".24"/>
    <rect class="cls-1" x="4.88" y="19.6" width=".24" height=".24"/>
    <rect class="cls-1" x="4.64" y="19.6" width=".24" height=".24"/>
    <rect class="cls-1" x="4.39" y="19.6" width=".24" height=".24"/>
    <rect class="cls-1" x="4.15" y="19.6" width=".24" height=".24"/>
    <rect class="cls-1" x="3.9" y="19.6" width=".24" height=".24"/>
    <rect class="cls-1" x="3.66" y="19.6" width=".24" height=".24"/>
    <rect class="cls-1" x="3.41" y="19.6" width=".24" height=".24"/>
    <rect class="cls-1" x="3.17" y="19.6" width=".24" height=".24"/>
    <rect class="cls-1" x="2.92" y="19.6" width=".24" height=".24"/>
    <rect class="cls-1" x="7.82" y="19.36" width=".24" height=".24"/>
    <rect class="cls-1" x="7.58" y="19.36" width=".24" height=".24"/>
    <rect class="cls-1" x="7.33" y="19.36" width=".24" height=".24"/>
    <rect class="cls-1" x="7.09" y="19.36" width=".24" height=".24"/>
    <rect class="cls-1" x="6.84" y="19.36" width=".24" height=".24"/>
    <rect class="cls-1" x="6.6" y="19.36" width=".24" height=".24"/>
    <rect class="cls-1" x="6.35" y="19.36" width=".24" height=".24"/>
    <rect class="cls-1" x="6.11" y="19.36" width=".24" height=".24"/>
    <rect class="cls-1" x="5.86" y="19.36" width=".24" height=".24"/>
    <rect class="cls-1" x="5.62" y="19.36" width=".24" height=".24"/>
    <rect class="cls-1" x="5.37" y="19.36" width=".24" height=".24"/>
    <rect class="cls-1" x="5.13" y="19.36" width=".24" height=".24"/>
    <rect class="cls-1" x="4.88" y="19.36" width=".24" height=".24"/>
    <rect class="cls-1" x="4.64" y="19.36" width=".24" height=".24"/>
    <rect class="cls-1" x="4.39" y="19.36" width=".24" height=".24"/>
    <rect class="cls-1" x="4.15" y="19.36" width=".24" height=".24"/>
    <rect class="cls-1" x="3.9" y="19.36" width=".24" height=".24"/>
    <rect class="cls-1" x="3.66" y="19.36" width=".24" height=".24"/>
    <rect class="cls-1" x="3.41" y="19.36" width=".24" height=".24"/>
    <rect class="cls-1" x="3.17" y="19.36" width=".24" height=".24"/>
    <rect class="cls-1" x="2.92" y="19.36" width=".24" height=".24"/>
    <rect class="cls-1" x="8.31" y="19.11" width=".24" height=".24"/>
    <rect class="cls-1" x="8.07" y="19.11" width=".24" height=".24"/>
    <rect class="cls-1" x="7.82" y="19.11" width=".24" height=".24"/>
    <rect class="cls-1" x="7.58" y="19.11" width=".24" height=".24"/>
    <rect class="cls-1" x="7.33" y="19.11" width=".24" height=".24"/>
    <rect class="cls-1" x="7.09" y="19.11" width=".24" height=".24"/>
    <rect class="cls-1" x="6.84" y="19.11" width=".24" height=".24"/>
    <rect class="cls-1" x="6.6" y="19.11" width=".24" height=".24"/>
    <rect class="cls-1" x="6.35" y="19.11" width=".24" height=".24"/>
    <rect class="cls-1" x="6.11" y="19.11" width=".24" height=".24"/>
    <rect class="cls-1" x="5.86" y="19.11" width=".24" height=".24"/>
    <rect class="cls-1" x="5.62" y="19.11" width=".24" height=".24"/>
    <rect class="cls-1" x="5.37" y="19.11" width=".24" height=".24"/>
    <rect class="cls-1" x="5.13" y="19.11" width=".24" height=".24"/>
    <rect class="cls-1" x="4.88" y="19.11" width=".24" height=".24"/>
    <rect class="cls-1" x="4.64" y="19.11" width=".24" height=".24"/>
    <rect class="cls-1" x="4.39" y="19.11" width=".24" height=".24"/>
    <rect class="cls-1" x="4.15" y="19.11" width=".24" height=".24"/>
    <rect class="cls-1" x="3.9" y="19.11" width=".24" height=".24"/>
    <rect class="cls-1" x="3.66" y="19.11" width=".24" height=".24"/>
    <rect class="cls-1" x="3.41" y="19.11" width=".24" height=".24"/>
    <rect class="cls-1" x="3.17" y="19.11" width=".24" height=".24"/>
    <rect class="cls-1" x="2.92" y="19.11" width=".24" height=".24"/>
    <rect class="cls-1" x="8.56" y="18.87" width=".24" height=".24"/>
    <rect class="cls-1" x="8.31" y="18.87" width=".24" height=".24"/>
    <rect class="cls-1" x="8.07" y="18.87" width=".24" height=".24"/>
    <rect class="cls-1" x="7.82" y="18.87" width=".24" height=".24"/>
    <rect class="cls-1" x="7.58" y="18.87" width=".24" height=".24"/>
    <rect class="cls-1" x="7.33" y="18.87" width=".24" height=".24"/>
    <rect class="cls-1" x="7.09" y="18.87" width=".24" height=".24"/>
    <rect class="cls-1" x="6.84" y="18.87" width=".24" height=".24"/>
    <rect class="cls-1" x="6.6" y="18.87" width=".24" height=".24"/>
    <rect class="cls-1" x="6.35" y="18.87" width=".24" height=".24"/>
    <rect class="cls-1" x="6.11" y="18.87" width=".24" height=".24"/>
    <rect class="cls-1" x="5.86" y="18.87" width=".24" height=".24"/>
    <rect class="cls-1" x="5.62" y="18.87" width=".24" height=".24"/>
    <rect class="cls-1" x="5.37" y="18.87" width=".24" height=".24"/>
    <rect class="cls-1" x="5.13" y="18.87" width=".24" height=".24"/>
    <rect class="cls-1" x="4.88" y="18.87" width=".24" height=".24"/>
    <rect class="cls-1" x="4.64" y="18.87" width=".24" height=".24"/>
    <rect class="cls-1" x="4.39" y="18.87" width=".24" height=".24"/>
    <rect class="cls-1" x="4.15" y="18.87" width=".24" height=".24"/>
    <rect class="cls-1" x="3.9" y="18.87" width=".24" height=".24"/>
    <rect class="cls-1" x="3.66" y="18.87" width=".24" height=".24"/>
    <rect class="cls-1" x="3.41" y="18.87" width=".24" height=".24"/>
    <rect class="cls-1" x="3.17" y="18.87" width=".24" height=".24"/>
    <rect class="cls-1" x="2.92" y="18.87" width=".24" height=".24"/>
    <rect class="cls-1" x="9.05" y="18.62" width=".24" height=".24"/>
    <rect class="cls-1" x="8.8" y="18.62" width=".24" height=".24"/>
    <rect class="cls-1" x="8.56" y="18.62" width=".24" height=".24"/>
    <rect class="cls-1" x="8.31" y="18.62" width=".24" height=".24"/>
    <rect class="cls-1" x="8.07" y="18.62" width=".24" height=".24"/>
    <rect class="cls-1" x="7.82" y="18.62" width=".24" height=".24"/>
    <rect class="cls-1" x="7.58" y="18.62" width=".24" height=".24"/>
    <rect class="cls-1" x="7.33" y="18.62" width=".24" height=".24"/>
    <rect class="cls-1" x="7.09" y="18.62" width=".24" height=".24"/>
    <rect class="cls-1" x="6.84" y="18.62" width=".24" height=".24"/>
    <rect class="cls-1" x="5.62" y="18.62" width=".24" height=".24"/>
    <rect class="cls-1" x="5.37" y="18.62" width=".24" height=".24"/>
    <rect class="cls-1" x="5.13" y="18.62" width=".24" height=".24"/>
    <rect class="cls-1" x="4.88" y="18.62" width=".24" height=".24"/>
    <rect class="cls-1" x="4.64" y="18.62" width=".24" height=".24"/>
    <rect class="cls-1" x="4.39" y="18.62" width=".24" height=".24"/>
    <rect class="cls-1" x="4.15" y="18.62" width=".24" height=".24"/>
    <rect class="cls-1" x="3.9" y="18.62" width=".24" height=".24"/>
    <rect class="cls-1" x="3.66" y="18.62" width=".24" height=".24"/>
    <rect class="cls-1" x="3.41" y="18.62" width=".24" height=".24"/>
    <rect class="cls-1" x="3.17" y="18.62" width=".24" height=".24"/>
    <rect class="cls-1" x="2.92" y="18.62" width=".24" height=".24"/>
    <rect class="cls-1" x="9.29" y="18.38" width=".24" height=".24"/>
    <rect class="cls-1" x="9.05" y="18.38" width=".24" height=".24"/>
    <rect class="cls-1" x="8.8" y="18.38" width=".24" height=".24"/>
    <rect class="cls-1" x="8.56" y="18.38" width=".24" height=".24"/>
    <rect class="cls-1" x="8.31" y="18.38" width=".24" height=".24"/>
    <rect class="cls-1" x="8.07" y="18.38" width=".24" height=".24"/>
    <rect class="cls-1" x="7.82" y="18.38" width=".24" height=".24"/>
    <rect class="cls-1" x="7.58" y="18.38" width=".24" height=".24"/>
    <rect class="cls-1" x="5.62" y="18.38" width=".24" height=".24"/>
    <rect class="cls-1" x="5.37" y="18.38" width=".24" height=".24"/>
    <rect class="cls-1" x="5.13" y="18.38" width=".24" height=".24"/>
    <rect class="cls-1" x="4.88" y="18.38" width=".24" height=".24"/>
    <rect class="cls-1" x="4.64" y="18.38" width=".24" height=".24"/>
    <rect class="cls-1" x="4.39" y="18.38" width=".24" height=".24"/>
    <rect class="cls-1" x="4.15" y="18.38" width=".24" height=".24"/>
    <rect class="cls-1" x="3.9" y="18.38" width=".24" height=".24"/>
    <rect class="cls-1" x="3.66" y="18.38" width=".24" height=".24"/>
    <rect class="cls-1" x="3.41" y="18.38" width=".24" height=".24"/>
    <rect class="cls-1" x="3.17" y="18.38" width=".24" height=".24"/>
    <rect class="cls-1" x="2.92" y="18.38" width=".24" height=".24"/>
    <rect class="cls-1" x="9.29" y="18.13" width=".24" height=".24"/>
    <rect class="cls-1" x="9.05" y="18.13" width=".24" height=".24"/>
    <rect class="cls-1" x="8.8" y="18.13" width=".24" height=".24"/>
    <rect class="cls-1" x="8.56" y="18.13" width=".24" height=".24"/>
    <rect class="cls-1" x="8.31" y="18.13" width=".24" height=".24"/>
    <rect class="cls-1" x="8.07" y="18.13" width=".24" height=".24"/>
    <rect class="cls-1" x="5.62" y="18.13" width=".24" height=".24"/>
    <rect class="cls-1" x="5.37" y="18.13" width=".24" height=".24"/>
    <rect class="cls-1" x="5.13" y="18.13" width=".24" height=".24"/>
    <rect class="cls-1" x="4.88" y="18.13" width=".24" height=".24"/>
    <rect class="cls-1" x="4.64" y="18.13" width=".24" height=".24"/>
    <rect class="cls-1" x="4.39" y="18.13" width=".24" height=".24"/>
    <rect class="cls-1" x="4.15" y="18.13" width=".24" height=".24"/>
    <rect class="cls-1" x="3.9" y="18.13" width=".24" height=".24"/>
    <rect class="cls-1" x="3.66" y="18.13" width=".24" height=".24"/>
    <rect class="cls-1" x="3.41" y="18.13" width=".24" height=".24"/>
    <rect class="cls-1" x="3.17" y="18.13" width=".24" height=".24"/>
    <rect class="cls-1" x="9.54" y="17.89" width=".24" height=".24"/>
    <rect class="cls-1" x="9.29" y="17.89" width=".24" height=".24"/>
    <rect class="cls-1" x="9.05" y="17.89" width=".24" height=".24"/>
    <rect class="cls-1" x="8.8" y="17.89" width=".24" height=".24"/>
    <rect class="cls-1" x="8.56" y="17.89" width=".24" height=".24"/>
    <rect class="cls-1" x="8.31" y="17.89" width=".24" height=".24"/>
    <rect class="cls-1" x="5.13" y="17.89" width=".24" height=".24"/>
    <rect class="cls-1" x="4.88" y="17.89" width=".24" height=".24"/>
    <rect class="cls-1" x="4.64" y="17.89" width=".24" height=".24"/>
    <rect class="cls-1" x="4.39" y="17.89" width=".24" height=".24"/>
    <rect class="cls-1" x="4.15" y="17.89" width=".24" height=".24"/>
    <rect class="cls-1" x="3.9" y="17.89" width=".24" height=".24"/>
    <rect class="cls-1" x="3.66" y="17.89" width=".24" height=".24"/>
    <rect class="cls-1" x="3.41" y="17.89" width=".24" height=".24"/>
    <rect class="cls-1" x="9.78" y="17.64" width=".24" height=".24"/>
    <rect class="cls-1" x="9.54" y="17.64" width=".24" height=".24"/>
    <rect class="cls-1" x="9.29" y="17.64" width=".24" height=".24"/>
    <rect class="cls-1" x="9.05" y="17.64" width=".24" height=".24"/>
    <rect class="cls-1" x="8.8" y="17.64" width=".24" height=".24"/>
    <rect class="cls-1" x="8.56" y="17.64" width=".24" height=".24"/>
    <rect class="cls-1" x="4.64" y="17.64" width=".24" height=".24"/>
    <rect class="cls-1" x="4.39" y="17.64" width=".24" height=".24"/>
    <rect class="cls-1" x="4.15" y="17.64" width=".24" height=".24"/>
    <rect class="cls-1" x="3.9" y="17.64" width=".24" height=".24"/>
    <rect class="cls-1" x="9.78" y="17.4" width=".24" height=".24"/>
    <rect class="cls-1" x="9.54" y="17.4" width=".24" height=".24"/>
    <rect class="cls-1" x="9.29" y="17.4" width=".24" height=".24"/>
    <rect class="cls-1" x="9.05" y="17.4" width=".24" height=".24"/>
    <rect class="cls-1" x="8.8" y="17.4" width=".24" height=".24"/>
    <rect class="cls-1" x="9.78" y="17.15" width=".24" height=".24"/>
    <rect class="cls-1" x="9.54" y="17.15" width=".24" height=".24"/>
    <rect class="cls-1" x="9.29" y="17.15" width=".24" height=".24"/>
    <rect class="cls-1" x="9.05" y="17.15" width=".24" height=".24"/>
    <rect class="cls-1" x="10.03" y="16.91" width=".24" height=".24"/>
    <rect class="cls-1" x="9.78" y="16.91" width=".24" height=".24"/>
    <rect class="cls-1" x="9.54" y="16.91" width=".24" height=".24"/>
    <rect class="cls-1" x="9.29" y="16.91" width=".24" height=".24"/>
    <rect class="cls-1" x="9.05" y="16.91" width=".24" height=".24"/>
    <rect class="cls-1" x="10.03" y="16.66" width=".24" height=".24"/>
    <rect class="cls-1" x="9.78" y="16.66" width=".24" height=".24"/>
    <rect class="cls-1" x="9.54" y="16.66" width=".24" height=".24"/>
    <rect class="cls-1" x="9.29" y="16.66" width=".24" height=".24"/>
    <rect class="cls-1" x="9.05" y="16.66" width=".24" height=".24"/>
    <rect class="cls-1" x="10.03" y="16.42" width=".24" height=".24"/>
    <rect class="cls-1" x="9.78" y="16.42" width=".24" height=".24"/>
    <rect class="cls-1" x="9.54" y="16.42" width=".24" height=".24"/>
    <rect class="cls-1" x="9.29" y="16.42" width=".24" height=".24"/>
    <rect class="cls-1" x="9.05" y="16.42" width=".24" height=".24"/>
    <rect class="cls-1" x="10.03" y="16.17" width=".24" height=".24"/>
    <rect class="cls-1" x="9.78" y="16.17" width=".24" height=".24"/>
    <rect class="cls-1" x="9.54" y="16.17" width=".24" height=".24"/>
    <rect class="cls-1" x="9.29" y="16.17" width=".24" height=".24"/>
    <rect class="cls-1" x="10.03" y="15.93" width=".24" height=".24"/>
    <rect class="cls-1" x="9.78" y="15.93" width=".24" height=".24"/>
    <rect class="cls-1" x="9.54" y="15.93" width=".24" height=".24"/>
    <rect class="cls-1" x="9.29" y="15.93" width=".24" height=".24"/>
    <rect class="cls-1" x="10.03" y="15.68" width=".24" height=".24"/>
    <rect class="cls-1" x="9.78" y="15.68" width=".24" height=".24"/>
    <rect class="cls-1" x="9.54" y="15.68" width=".24" height=".24"/>
    <rect class="cls-1" x="9.29" y="15.68" width=".24" height=".24"/>
    <rect class="cls-1" x="10.03" y="15.44" width=".24" height=".24"/>
    <rect class="cls-1" x="9.78" y="15.44" width=".24" height=".24"/>
    <rect class="cls-1" x="9.54" y="15.44" width=".24" height=".24"/>
    <rect class="cls-1" x="9.29" y="15.44" width=".24" height=".24"/>
    <rect class="cls-1" x="9.05" y="15.44" width=".24" height=".24"/>
    <rect class="cls-1" x="10.03" y="15.19" width=".24" height=".24"/>
    <rect class="cls-1" x="9.78" y="15.19" width=".24" height=".24"/>
    <rect class="cls-1" x="9.54" y="15.19" width=".24" height=".24"/>
    <rect class="cls-1" x="9.29" y="15.19" width=".24" height=".24"/>
    <rect class="cls-1" x="9.05" y="15.19" width=".24" height=".24"/>
    <rect class="cls-1" x="9.78" y="14.95" width=".24" height=".24"/>
    <rect class="cls-1" x="9.54" y="14.95" width=".24" height=".24"/>
    <rect class="cls-1" x="9.29" y="14.95" width=".24" height=".24"/>
    <rect class="cls-1" x="9.05" y="14.95" width=".24" height=".24"/>
    <rect class="cls-1" x="9.78" y="14.7" width=".24" height=".24"/>
    <rect class="cls-1" x="9.54" y="14.7" width=".24" height=".24"/>
    <rect class="cls-1" x="9.29" y="14.7" width=".24" height=".24"/>
    <rect class="cls-1" x="9.05" y="14.7" width=".24" height=".24"/>
    <rect class="cls-1" x="9.78" y="14.46" width=".24" height=".24"/>
    <rect class="cls-1" x="9.54" y="14.46" width=".24" height=".24"/>
    <rect class="cls-1" x="9.29" y="14.46" width=".24" height=".24"/>
    <rect class="cls-1" x="9.05" y="14.46" width=".24" height=".24"/>
    <rect class="cls-1" x="9.78" y="14.21" width=".24" height=".24"/>
    <rect class="cls-1" x="9.54" y="14.21" width=".24" height=".24"/>
    <rect class="cls-1" x="9.29" y="14.21" width=".24" height=".24"/>
    <rect class="cls-1" x="9.05" y="14.21" width=".24" height=".24"/>
    <rect class="cls-1" x="8.8" y="14.21" width=".24" height=".24"/>
    <rect class="cls-1" x="9.54" y="13.97" width=".24" height=".24"/>
    <rect class="cls-1" x="9.29" y="13.97" width=".24" height=".24"/>
    <rect class="cls-1" x="9.05" y="13.97" width=".24" height=".24"/>
    <rect class="cls-1" x="8.8" y="13.97" width=".24" height=".24"/>
    <rect class="cls-1" x="9.54" y="13.72" width=".24" height=".24"/>
    <rect class="cls-1" x="9.29" y="13.72" width=".24" height=".24"/>
    <rect class="cls-1" x="9.05" y="13.72" width=".24" height=".24"/>
    <rect class="cls-1" x="8.8" y="13.72" width=".24" height=".24"/>
    <rect class="cls-1" x="9.54" y="13.48" width=".24" height=".24"/>
    <rect class="cls-1" x="9.29" y="13.48" width=".24" height=".24"/>
    <rect class="cls-1" x="9.05" y="13.48" width=".24" height=".24"/>
    <rect class="cls-1" x="8.8" y="13.48" width=".24" height=".24"/>
    <rect class="cls-1" x="9.54" y="13.23" width=".24" height=".24"/>
    <rect class="cls-1" x="9.29" y="13.23" width=".24" height=".24"/>
    <rect class="cls-1" x="9.05" y="13.23" width=".24" height=".24"/>
    <rect class="cls-1" x="8.8" y="13.23" width=".24" height=".24"/>
    <rect class="cls-1" x="8.56" y="13.23" width=".24" height=".24"/>
    <rect class="cls-1" x="9.29" y="12.99" width=".24" height=".24"/>
    <rect class="cls-1" x="9.05" y="12.99" width=".24" height=".24"/>
    <rect class="cls-1" x="8.8" y="12.99" width=".24" height=".24"/>
    <rect class="cls-1" x="8.56" y="12.99" width=".24" height=".24"/>
    <rect class="cls-1" x="9.29" y="12.74" width=".24" height=".24"/>
    <rect class="cls-1" x="9.05" y="12.74" width=".24" height=".24"/>
    <rect class="cls-1" x="8.8" y="12.74" width=".24" height=".24"/>
    <rect class="cls-1" x="8.56" y="12.74" width=".24" height=".24"/>
    <rect class="cls-1" x="9.29" y="12.5" width=".24" height=".24"/>
    <rect class="cls-1" x="9.05" y="12.5" width=".24" height=".24"/>
    <rect class="cls-1" x="8.8" y="12.5" width=".24" height=".24"/>
    <rect class="cls-1" x="8.56" y="12.5" width=".24" height=".24"/>
    <rect class="cls-1" x="9.29" y="12.25" width=".24" height=".24"/>
    <rect class="cls-1" x="9.05" y="12.25" width=".24" height=".24"/>
    <rect class="cls-1" x="8.8" y="12.25" width=".24" height=".24"/>
    <rect class="cls-1" x="8.56" y="12.25" width=".24" height=".24"/>
    <rect class="cls-1" x="9.54" y="12.01" width=".24" height=".24"/>
    <rect class="cls-1" x="9.29" y="12.01" width=".24" height=".24"/>
    <rect class="cls-1" x="9.05" y="12.01" width=".24" height=".24"/>
    <rect class="cls-1" x="8.8" y="12.01" width=".24" height=".24"/>
    <rect class="cls-1" x="8.56" y="12.01" width=".24" height=".24"/>
    <rect class="cls-1" x="9.54" y="11.76" width=".24" height=".24"/>
    <rect class="cls-1" x="9.29" y="11.76" width=".24" height=".24"/>
    <rect class="cls-1" x="9.05" y="11.76" width=".24" height=".24"/>
    <rect class="cls-1" x="8.8" y="11.76" width=".24" height=".24"/>
    <rect class="cls-1" x="9.54" y="11.52" width=".24" height=".24"/>
    <rect class="cls-1" x="9.29" y="11.52" width=".24" height=".24"/>
    <rect class="cls-1" x="9.05" y="11.52" width=".24" height=".24"/>
    <rect class="cls-1" x="8.8" y="11.52" width=".24" height=".24"/>
    <rect class="cls-1" x="13.45" y="11.27" width=".24" height=".24"/>
    <rect class="cls-1" x="13.21" y="11.27" width=".24" height=".24"/>
    <rect class="cls-1" x="9.78" y="11.27" width=".24" height=".24"/>
    <rect class="cls-1" x="9.54" y="11.27" width=".24" height=".24"/>
    <rect class="cls-1" x="9.29" y="11.27" width=".24" height=".24"/>
    <rect class="cls-1" x="9.05" y="11.27" width=".24" height=".24"/>
    <rect class="cls-1" x="8.8" y="11.27" width=".24" height=".24"/>
    <rect class="cls-1" x="13.7" y="11.03" width=".24" height=".24"/>
    <rect class="cls-1" x="13.45" y="11.03" width=".24" height=".24"/>
    <rect class="cls-1" x="13.21" y="11.03" width=".24" height=".24"/>
    <rect class="cls-1" x="9.78" y="11.03" width=".24" height=".24"/>
    <rect class="cls-1" x="9.54" y="11.03" width=".24" height=".24"/>
    <rect class="cls-1" x="9.29" y="11.03" width=".24" height=".24"/>
    <rect class="cls-1" x="9.05" y="11.03" width=".24" height=".24"/>
    <rect class="cls-1" x="14.19" y="10.78" width=".24" height=".24"/>
    <rect class="cls-1" x="13.94" y="10.78" width=".24" height=".24"/>
    <rect class="cls-1" x="13.7" y="10.78" width=".24" height=".24"/>
    <rect class="cls-1" x="13.45" y="10.78" width=".24" height=".24"/>
    <rect class="cls-1" x="13.21" y="10.78" width=".24" height=".24"/>
    <rect class="cls-1" x="10.03" y="10.78" width=".24" height=".24"/>
    <rect class="cls-1" x="9.78" y="10.78" width=".24" height=".24"/>
    <rect class="cls-1" x="9.54" y="10.78" width=".24" height=".24"/>
    <rect class="cls-1" x="9.29" y="10.78" width=".24" height=".24"/>
    <rect class="cls-1" x="9.05" y="10.78" width=".24" height=".24"/>
    <rect class="cls-1" x="14.68" y="10.54" width=".24" height=".24"/>
    <rect class="cls-1" x="14.43" y="10.54" width=".24" height=".24"/>
    <rect class="cls-1" x="14.19" y="10.54" width=".24" height=".24"/>
    <rect class="cls-1" x="13.94" y="10.54" width=".24" height=".24"/>
    <rect class="cls-1" x="13.7" y="10.54" width=".24" height=".24"/>
    <rect class="cls-1" x="13.45" y="10.54" width=".24" height=".24"/>
    <rect class="cls-1" x="13.21" y="10.54" width=".24" height=".24"/>
    <rect class="cls-1" x="10.52" y="10.54" width=".24" height=".24"/>
    <rect class="cls-1" x="10.27" y="10.54" width=".24" height=".24"/>
    <rect class="cls-1" x="10.03" y="10.54" width=".24" height=".24"/>
    <rect class="cls-1" x="9.78" y="10.54" width=".24" height=".24"/>
    <rect class="cls-1" x="9.54" y="10.54" width=".24" height=".24"/>
    <rect class="cls-1" x="9.29" y="10.54" width=".24" height=".24"/>
    <rect class="cls-1" x="15.17" y="10.29" width=".24" height=".24"/>
    <rect class="cls-1" x="14.92" y="10.29" width=".24" height=".24"/>
    <rect class="cls-1" x="14.68" y="10.29" width=".24" height=".24"/>
    <rect class="cls-1" x="14.43" y="10.29" width=".24" height=".24"/>
    <rect class="cls-1" x="14.19" y="10.29" width=".24" height=".24"/>
    <rect class="cls-1" x="13.94" y="10.29" width=".24" height=".24"/>
    <rect class="cls-1" x="13.7" y="10.29" width=".24" height=".24"/>
    <rect class="cls-1" x="13.45" y="10.29" width=".24" height=".24"/>
    <rect class="cls-1" x="13.21" y="10.29" width=".24" height=".24"/>
    <rect class="cls-1" x="11" y="10.29" width=".24" height=".24"/>
    <rect class="cls-1" x="10.76" y="10.29" width=".24" height=".24"/>
    <rect class="cls-1" x="10.52" y="10.29" width=".24" height=".24"/>
    <rect class="cls-1" x="10.27" y="10.29" width=".24" height=".24"/>
    <rect class="cls-1" x="10.03" y="10.29" width=".24" height=".24"/>
    <rect class="cls-1" x="9.78" y="10.29" width=".24" height=".24"/>
    <rect class="cls-1" x="9.54" y="10.29" width=".24" height=".24"/>
    <rect class="cls-1" x="9.29" y="10.29" width=".24" height=".24"/>
    <rect class="cls-1" x="15.66" y="10.05" width=".24" height=".24"/>
    <rect class="cls-1" x="15.41" y="10.05" width=".24" height=".24"/>
    <rect class="cls-1" x="15.17" y="10.05" width=".24" height=".24"/>
    <rect class="cls-1" x="14.92" y="10.05" width=".24" height=".24"/>
    <rect class="cls-1" x="14.68" y="10.05" width=".24" height=".24"/>
    <rect class="cls-1" x="14.43" y="10.05" width=".24" height=".24"/>
    <rect class="cls-1" x="14.19" y="10.05" width=".24" height=".24"/>
    <rect class="cls-1" x="13.94" y="10.05" width=".24" height=".24"/>
    <rect class="cls-1" x="13.7" y="10.05" width=".24" height=".24"/>
    <rect class="cls-1" x="13.45" y="10.05" width=".24" height=".24"/>
    <rect class="cls-1" x="13.21" y="10.05" width=".24" height=".24"/>
    <rect class="cls-1" x="12.96" y="10.05" width=".24" height=".24"/>
    <rect class="cls-1" x="12.72" y="10.05" width=".24" height=".24"/>
    <rect class="cls-1" x="12.47" y="10.05" width=".24" height=".24"/>
    <rect class="cls-1" x="12.23" y="10.05" width=".24" height=".24"/>
    <rect class="cls-1" x="11.98" y="10.05" width=".24" height=".24"/>
    <rect class="cls-1" x="11.74" y="10.05" width=".24" height=".24"/>
    <rect class="cls-1" x="11.49" y="10.05" width=".24" height=".24"/>
    <rect class="cls-1" x="11.25" y="10.05" width=".24" height=".24"/>
    <rect class="cls-1" x="11" y="10.05" width=".24" height=".24"/>
    <rect class="cls-1" x="10.76" y="10.05" width=".24" height=".24"/>
    <rect class="cls-1" x="10.52" y="10.05" width=".24" height=".24"/>
    <rect class="cls-1" x="10.27" y="10.05" width=".24" height=".24"/>
    <rect class="cls-1" x="10.03" y="10.05" width=".24" height=".24"/>
    <rect class="cls-1" x="9.78" y="10.05" width=".24" height=".24"/>
    <rect class="cls-1" x="9.54" y="10.05" width=".24" height=".24"/>
    <rect class="cls-1" x="16.15" y="9.8" width=".24" height=".24"/>
    <rect class="cls-1" x="15.9" y="9.8" width=".24" height=".24"/>
    <rect class="cls-1" x="15.66" y="9.8" width=".24" height=".24"/>
    <rect class="cls-1" x="15.41" y="9.8" width=".24" height=".24"/>
    <rect class="cls-1" x="15.17" y="9.8" width=".24" height=".24"/>
    <rect class="cls-1" x="14.92" y="9.8" width=".24" height=".24"/>
    <rect class="cls-1" x="14.68" y="9.8" width=".24" height=".24"/>
    <rect class="cls-1" x="14.43" y="9.8" width=".24" height=".24"/>
    <rect class="cls-1" x="14.19" y="9.8" width=".24" height=".24"/>
    <rect class="cls-1" x="13.94" y="9.8" width=".24" height=".24"/>
    <rect class="cls-1" x="13.7" y="9.8" width=".24" height=".24"/>
    <rect class="cls-1" x="13.45" y="9.8" width=".24" height=".24"/>
    <rect class="cls-1" x="13.21" y="9.8" width=".24" height=".24"/>
    <rect class="cls-1" x="12.96" y="9.8" width=".24" height=".24"/>
    <rect class="cls-1" x="12.72" y="9.8" width=".24" height=".24"/>
    <rect class="cls-1" x="12.47" y="9.8" width=".24" height=".24"/>
    <rect class="cls-1" x="12.23" y="9.8" width=".24" height=".24"/>
    <rect class="cls-1" x="11.98" y="9.8" width=".24" height=".24"/>
    <rect class="cls-1" x="11.74" y="9.8" width=".24" height=".24"/>
    <rect class="cls-1" x="11.49" y="9.8" width=".24" height=".24"/>
    <rect class="cls-1" x="11.25" y="9.8" width=".24" height=".24"/>
    <rect class="cls-1" x="11" y="9.8" width=".24" height=".24"/>
    <rect class="cls-1" x="10.76" y="9.8" width=".24" height=".24"/>
    <rect class="cls-1" x="10.52" y="9.8" width=".24" height=".24"/>
    <rect class="cls-1" x="10.27" y="9.8" width=".24" height=".24"/>
    <rect class="cls-1" x="10.03" y="9.8" width=".24" height=".24"/>
    <rect class="cls-1" x="15.9" y="9.56" width=".24" height=".24"/>
    <rect class="cls-1" x="15.66" y="9.56" width=".24" height=".24"/>
    <rect class="cls-1" x="15.41" y="9.56" width=".24" height=".24"/>
    <rect class="cls-1" x="15.17" y="9.56" width=".24" height=".24"/>
    <rect class="cls-1" x="14.92" y="9.56" width=".24" height=".24"/>
    <rect class="cls-1" x="14.68" y="9.56" width=".24" height=".24"/>
    <rect class="cls-1" x="14.43" y="9.56" width=".24" height=".24"/>
    <rect class="cls-1" x="14.19" y="9.56" width=".24" height=".24"/>
    <rect class="cls-1" x="13.94" y="9.56" width=".24" height=".24"/>
    <rect class="cls-1" x="13.7" y="9.56" width=".24" height=".24"/>
    <rect class="cls-1" x="13.45" y="9.56" width=".24" height=".24"/>
    <rect class="cls-1" x="13.21" y="9.56" width=".24" height=".24"/>
    <rect class="cls-1" x="12.96" y="9.56" width=".24" height=".24"/>
    <rect class="cls-1" x="12.72" y="9.56" width=".24" height=".24"/>
    <rect class="cls-1" x="12.47" y="9.56" width=".24" height=".24"/>
    <rect class="cls-1" x="12.23" y="9.56" width=".24" height=".24"/>
    <rect class="cls-1" x="11.98" y="9.56" width=".24" height=".24"/>
    <rect class="cls-1" x="11.74" y="9.56" width=".24" height=".24"/>
    <rect class="cls-1" x="11.49" y="9.56" width=".24" height=".24"/>
    <rect class="cls-1" x="11.25" y="9.56" width=".24" height=".24"/>
    <rect class="cls-1" x="11" y="9.56" width=".24" height=".24"/>
    <rect class="cls-1" x="10.76" y="9.56" width=".24" height=".24"/>
    <rect class="cls-1" x="10.52" y="9.56" width=".24" height=".24"/>
    <rect class="cls-1" x="10.27" y="9.56" width=".24" height=".24"/>
    <rect class="cls-1" x="15.66" y="9.31" width=".24" height=".24"/>
    <rect class="cls-1" x="15.41" y="9.31" width=".24" height=".24"/>
    <rect class="cls-1" x="15.17" y="9.31" width=".24" height=".24"/>
    <rect class="cls-1" x="14.92" y="9.31" width=".24" height=".24"/>
    <rect class="cls-1" x="14.68" y="9.31" width=".24" height=".24"/>
    <rect class="cls-1" x="14.43" y="9.31" width=".24" height=".24"/>
    <rect class="cls-1" x="14.19" y="9.31" width=".24" height=".24"/>
    <rect class="cls-1" x="13.94" y="9.31" width=".24" height=".24"/>
    <rect class="cls-1" x="13.7" y="9.31" width=".24" height=".24"/>
    <rect class="cls-1" x="13.45" y="9.31" width=".24" height=".24"/>
    <rect class="cls-1" x="13.21" y="9.31" width=".24" height=".24"/>
    <rect class="cls-1" x="12.96" y="9.31" width=".24" height=".24"/>
    <rect class="cls-1" x="12.72" y="9.31" width=".24" height=".24"/>
    <rect class="cls-1" x="12.47" y="9.31" width=".24" height=".24"/>
    <rect class="cls-1" x="12.23" y="9.31" width=".24" height=".24"/>
    <rect class="cls-1" x="11.98" y="9.31" width=".24" height=".24"/>
    <rect class="cls-1" x="11.74" y="9.31" width=".24" height=".24"/>
    <rect class="cls-1" x="11.49" y="9.31" width=".24" height=".24"/>
    <rect class="cls-1" x="11.25" y="9.31" width=".24" height=".24"/>
    <rect class="cls-1" x="11" y="9.31" width=".24" height=".24"/>
    <rect class="cls-1" x="15.17" y="9.07" width=".24" height=".24"/>
    <rect class="cls-1" x="14.92" y="9.07" width=".24" height=".24"/>
    <rect class="cls-1" x="14.68" y="9.07" width=".24" height=".24"/>
    <rect class="cls-1" x="14.43" y="9.07" width=".24" height=".24"/>
    <rect class="cls-1" x="14.19" y="9.07" width=".24" height=".24"/>
    <rect class="cls-1" x="13.94" y="9.07" width=".24" height=".24"/>
    <rect class="cls-1" x="13.7" y="9.07" width=".24" height=".24"/>
    <rect class="cls-1" x="13.45" y="9.07" width=".24" height=".24"/>
    <rect class="cls-1" x="13.21" y="9.07" width=".24" height=".24"/>
    <rect class="cls-1" x="14.68" y="8.82" width=".24" height=".24"/>
    <rect class="cls-1" x="14.43" y="8.82" width=".24" height=".24"/>
    <rect class="cls-1" x="14.19" y="8.82" width=".24" height=".24"/>
    <rect class="cls-1" x="13.94" y="8.82" width=".24" height=".24"/>
    <rect class="cls-1" x="13.7" y="8.82" width=".24" height=".24"/>
    <rect class="cls-1" x="13.45" y="8.82" width=".24" height=".24"/>
    <rect class="cls-1" x="13.21" y="8.82" width=".24" height=".24"/>
    <rect class="cls-1" x="14.19" y="8.58" width=".24" height=".24"/>
    <rect class="cls-1" x="13.94" y="8.58" width=".24" height=".24"/>
    <rect class="cls-1" x="13.7" y="8.58" width=".24" height=".24"/>
    <rect class="cls-1" x="13.45" y="8.58" width=".24" height=".24"/>
    <rect class="cls-1" x="13.21" y="8.58" width=".24" height=".24"/>
    <rect class="cls-1" x="13.7" y="8.33" width=".24" height=".24"/>
    <rect class="cls-1" x="13.45" y="8.33" width=".24" height=".24"/>
    <rect class="cls-1" x="13.21" y="8.33" width=".24" height=".24"/>
    <rect class="cls-1" x="13.21" y="8.09" width=".24" height=".24"/>
  </g>
  <rect class="cls-1" x="22" y="22.96" width="1" height="1.04"/>
  <rect class="cls-1" x="21" y="22.96" width="1" height="1.04"/>
  <rect class="cls-1" x="20" y="22.96" width="1" height="1.04"/>
  <rect class="cls-1" x="19" y="22.96" width="1" height="1.04"/>
  <rect class="cls-1" x="18" y="22.96" width="1" height="1.04"/>
  <rect class="cls-1" x="17" y="22.96" width="1" height="1.04"/>
  <rect class="cls-1" x="16" y="22.96" width="1" height="1.04"/>
  <rect class="cls-1" x="15" y="22.96" width="1" height="1.04"/>
  <rect class="cls-1" x="14" y="22.96" width="1" height="1.04"/>
  <rect class="cls-1" x="13" y="22.96" width="1" height="1.04"/>
  <rect class="cls-1" x="12" y="22.96" width="1" height="1.04"/>
  <rect class="cls-1" x="11" y="22.96" width="1" height="1.04"/>
  <rect class="cls-1" x="10" y="22.96" width="1" height="1.04"/>
  <rect class="cls-1" x="9" y="22.96" width="1" height="1.04"/>
  <rect class="cls-1" x="8" y="22.96" width="1" height="1.04"/>
  <rect class="cls-1" x="7" y="22.96" width="1" height="1.04"/>
  <rect class="cls-1" x="6" y="22.96" width="1" height="1.04"/>
  <rect class="cls-1" x="5" y="22.96" width="1" height="1.04"/>
  <rect class="cls-1" x="4" y="22.96" width="1" height="1.04"/>
  <rect class="cls-1" x="3" y="22.96" width="1" height="1.04"/>
  <rect class="cls-1" x="2" y="22.96" width="1" height="1.04"/>
  <rect class="cls-1" x="1" y="22.96" width="1" height="1.04"/>
  <rect class="cls-1" y="22.96" width="1" height="1.04"/>
  <rect class="cls-1" x="23" y="21.91" width="1" height="1.04"/>
  <rect class="cls-1" x="22" y="21.91" width="1" height="1.04"/>
  <rect class="cls-1" y="21.91" width="1" height="1.04"/>
  <rect class="cls-1" x="23" y="20.87" width="1" height="1.04"/>
  <rect class="cls-1" y="20.87" width="1" height="1.04"/>
  <rect class="cls-1" x="23" y="19.83" width="1" height="1.04"/>
  <rect class="cls-1" y="19.83" width="1" height="1.04"/>
  <rect class="cls-1" x="23" y="18.78" width="1" height="1.04"/>
  <polyline class="cls-1" points="20 18.78 19 18.78 19 19.83 20 19.83"/>
  <rect class="cls-1" x="18" y="18.78" width="1" height="1.04"/>
  <rect class="cls-1" y="18.78" width="1" height="1.04"/>
  <rect class="cls-1" x="23" y="17.74" width="1" height="1.04"/>
  <rect class="cls-1" x="22" y="17.74" width="1" height="1.04"/>
  <rect class="cls-1" x="18" y="17.74" width="1" height="1.04"/>
  <rect class="cls-1" x="17" y="17.74" width="1" height="1.04"/>
  <rect class="cls-1" y="17.74" width="1" height="1.04"/>
  <rect class="cls-1" x="23" y="16.7" width="1" height="1.04"/>
  <rect class="cls-1" x="22" y="16.7" width="1" height="1.04"/>
  <rect class="cls-1" x="21" y="16.7" width="1" height="1.04"/>
  <rect class="cls-1" x="20" y="16.7" width="1" height="1.04"/>
  <rect class="cls-1" x="19" y="16.7" width="1" height="1.04"/>
  <rect class="cls-1" x="18" y="16.7" width="1" height="1.04"/>
  <rect class="cls-1" x="17" y="16.7" width="1" height="1.04"/>
  <rect class="cls-1" y="16.7" width="1" height="1.04"/>
  <rect class="cls-1" x="23" y="15.65" width="1" height="1.04"/>
  <rect class="cls-1" x="17" y="15.65" width="1" height="1.04"/>
  <rect class="cls-1" y="15.65" width="1" height="1.04"/>
  <rect class="cls-1" x="23" y="14.61" width="1" height="1.04"/>
  <rect class="cls-1" x="17" y="14.61" width="1" height="1.04"/>
  <rect class="cls-1" y="14.61" width="1" height="1.04"/>
  <rect class="cls-1" x="23" y="13.57" width="1" height="1.04"/>
  <rect class="cls-1" x="17" y="13.57" width="1" height="1.04"/>
  <rect class="cls-1" y="13.57" width="1" height="1.04"/>
  <rect class="cls-1" x="23" y="12.52" width="1" height="1.04"/>
  <rect class="cls-1" x="17" y="12.52" width="1" height="1.04"/>
  <rect class="cls-1" y="12.52" width="1" height="1.04"/>
  <rect class="cls-1" x="23" y="11.48" width="1" height="1.04"/>
  <rect class="cls-1" x="17" y="11.48" width="1" height="1.04"/>
  <rect class="cls-1" y="11.48" width="1" height="1.04"/>
  <rect class="cls-1" x="23" y="10.43" width="1" height="1.04"/>
  <rect class="cls-1" x="17" y="10.43" width="1" height="1.04"/>
  <rect class="cls-1" y="10.43" width="1" height="1.04"/>
  <rect class="cls-1" x="23" y="9.39" width="1" height="1.04"/>
  <rect class="cls-1" x="17" y="9.39" width="1" height="1.04"/>
  <rect class="cls-1" y="9.39" width="1" height="1.04"/>
  <rect class="cls-1" x="23" y="8.35" width="1" height="1.04"/>
  <rect class="cls-1" x="17" y="8.35" width="1" height="1.04"/>
  <rect class="cls-1" y="8.35" width="1" height="1.04"/>
  <rect class="cls-1" x="23" y="7.3" width="1" height="1.04"/>
  <rect class="cls-1" x="17" y="7.3" width="1" height="1.04"/>
  <rect class="cls-1" y="7.3" width="1" height="1.04"/>
  <rect class="cls-1" x="23" y="6.26" width="1" height="1.04"/>
  <rect class="cls-1" x="17" y="6.26" width="1" height="1.04"/>
  <rect class="cls-1" y="6.26" width="1" height="1.04"/>
  <rect class="cls-1" x="23" y="5.22" width="1" height="1.04"/>
  <rect class="cls-1" x="17" y="5.22" width="1" height="1.04"/>
  <rect class="cls-1" x="16" y="5.22" width="1" height="1.04"/>
  <rect class="cls-1" x="15" y="5.22" width="1" height="1.04"/>
  <rect class="cls-1" x="14" y="5.22" width="1" height="1.04"/>
  <rect class="cls-1" x="13" y="5.22" width="1" height="1.04"/>
  <rect class="cls-1" x="12" y="5.22" width="1" height="1.04"/>
  <rect class="cls-1" x="11" y="5.22" width="1" height="1.04"/>
  <rect class="cls-1" x="10" y="5.22" width="1" height="1.04"/>
  <rect class="cls-1" x="9" y="5.22" width="1" height="1.04"/>
  <rect class="cls-1" x="8" y="5.22" width="1" height="1.04"/>
  <rect class="cls-1" x="7" y="5.22" width="1" height="1.04"/>
  <rect class="cls-1" x="6" y="5.22" width="1" height="1.04"/>
  <rect class="cls-1" x="5" y="5.22" width="1" height="1.04"/>
  <rect class="cls-1" x="4" y="5.22" width="1" height="1.04"/>
  <rect class="cls-1" x="3" y="5.22" width="1" height="1.04"/>
  <rect class="cls-1" x="2" y="5.22" width="1" height="1.04"/>
  <rect class="cls-1" x="1" y="5.22" width="1" height="1.04"/>
  <rect class="cls-1" y="5.22" width="1" height="1.04"/>
  <rect class="cls-1" x="23" y="4.17" width="1" height="1.04"/>
  <rect class="cls-1" x="17" y="4.17" width="1" height="1.04"/>
  <rect class="cls-1" x="23" y="3.13" width="1" height="1.04"/>
  <rect class="cls-1" x="17" y="3.13" width="1" height="1.04"/>
  <rect class="cls-1" x="23" y="2.09" width="1" height="1.04"/>
  <rect class="cls-1" x="17" y="2.09" width="1" height="1.04"/>
  <rect class="cls-1" x="23" y="1.04" width="1" height="1.04"/>
  <rect class="cls-1" x="22" y="1.04" width="1" height="1.04"/>
  <rect class="cls-1" x="18" y="1.04" width="1" height="1.04"/>
  <rect class="cls-1" x="21" width="1" height="1.04"/>
  <rect class="cls-1" x="20" width="1" height="1.04"/>
  <rect class="cls-1" x="19" width="1" height="1.04"/>
</svg>